<svg width="108" height="92" viewBox="0 0 108 92" fill="none" xmlns="http://www.w3.org/2000/svg">
<rect x="-12" y="-28" width="120" height="120" rx="60" fill="#F8E000" fill-opacity="0.12"/>
<path d="M48 44C50.7848 44 53.4555 42.8938 55.4246 40.9246C57.3938 38.9555 58.5 36.2848 58.5 33.5C58.5 30.7152 57.3938 28.0445 55.4246 26.0754C53.4555 24.1062 50.7848 23 48 23C45.2152 23 42.5445 24.1062 40.5754 26.0754C38.6062 28.0445 37.5 30.7152 37.5 33.5C37.5 36.2848 38.6062 38.9555 40.5754 40.9246C42.5445 42.8938 45.2152 44 48 44ZM35.25 47C33.8576 47 32.5223 47.5531 31.5377 48.5377C30.5531 49.5223 30 50.8576 30 52.25V53C30 56.5895 32.2845 59.6255 35.5275 61.6895C38.7885 63.7655 43.203 65 48 65C52.797 65 57.21 63.7655 60.4725 61.6895C63.7155 59.6255 66 56.5895 66 53V52.25C66 50.8576 65.4469 49.5223 64.4623 48.5377C63.4777 47.5531 62.1424 47 60.75 47H35.25Z" fill="#F8E000"/>
</svg>
