<svg width="108" height="92" viewBox="0 0 108 92" fill="none" xmlns="http://www.w3.org/2000/svg">
<rect x="-12" y="-28" width="120" height="120" rx="60" fill="#FF791F" fill-opacity="0.12"/>
<path fill-rule="evenodd" clip-rule="evenodd" d="M28.14 30.516C28 31.252 28 32.136 28 33.9V48C28 55.542 28 59.314 30.344 61.656C32.688 63.998 36.458 64 44 64H52C59.542 64 63.314 64 65.656 61.656C67.998 59.312 68 55.542 68 48V43.596C68 38.332 68 35.698 66.46 33.988C66.3187 33.8302 66.1692 33.68 66.012 33.538C64.302 32 61.668 32 56.404 32H55.656C53.35 32 52.196 32 51.12 31.694C50.5295 31.5252 49.9604 31.289 49.424 30.99C48.448 30.448 47.632 29.63 46 28L44.9 26.9C44.352 26.352 44.08 26.08 43.792 25.84C42.5533 24.8133 41.0339 24.1839 39.432 24.034C39.06 24 38.672 24 37.9 24C36.134 24 35.252 24 34.516 24.14C32.9357 24.4384 31.482 25.2063 30.3446 26.3433C29.2072 27.4803 28.4389 28.9358 28.14 30.516ZM48.5 40C48.5 39.6022 48.658 39.2206 48.9393 38.9393C49.2206 38.658 49.6022 38.5 50 38.5H60C60.3978 38.5 60.7794 38.658 61.0607 38.9393C61.342 39.2206 61.5 39.6022 61.5 40C61.5 40.3978 61.342 40.7794 61.0607 41.0607C60.7794 41.342 60.3978 41.5 60 41.5H50C49.6022 41.5 49.2206 41.342 48.9393 41.0607C48.658 40.7794 48.5 40.3978 48.5 40Z" fill="#FF791F"/>
</svg>
