<svg width="16" height="13" viewBox="0 0 16 13" fill="none" xmlns="http://www.w3.org/2000/svg">
<g clip-path="url(#clip0_2385_68481)">
<path d="M15.1988 2.79319C15.1988 2.79319 15.1654 2.73797 15.1432 2.72693C14.9206 2.63858 14.6981 2.55022 14.4756 2.47292C13.3852 2.05324 12.2948 1.63357 11.2155 1.22494C10.1696 0.827359 9.13481 0.429775 8.08892 0.032191C8.02216 0.010103 7.96653 0.010103 7.89977 0.032191C7.33231 0.253071 6.76486 0.473951 6.1974 0.683787C5.1515 1.08137 4.10561 1.47896 3.05971 1.88758C2.32536 2.16368 1.591 2.45083 0.85665 2.72693C0.801018 2.74902 0.778764 2.7711 0.789891 2.82632C0.789891 2.94781 0.789891 3.08034 0.789891 3.20182C0.789891 3.31226 0.789891 3.43374 0.789891 3.54418H15.2099C15.2099 3.54418 15.2099 3.5221 15.2099 3.51105C15.2099 3.26808 15.2099 3.02512 15.2099 2.78215L15.1988 2.79319ZM7.97765 2.48396C7.66611 2.48396 7.39907 2.2189 7.39907 1.89863C7.39907 1.57835 7.67723 1.29121 7.98878 1.29121C8.3337 1.29121 8.60074 1.56731 8.60074 1.89863C8.60074 2.22995 8.3337 2.47292 7.97765 2.47292V2.48396Z" fill="#3698FB"/>
<path d="M15.6552 3.79688H0.322754V4.97858H15.6552V3.79688Z" fill="#3698FB"/>
<path d="M3.93897 11.3748V11.8718H1.16846V11.3859H1.6469V5.73136H1.16846V5.23438H3.93897V5.72031H3.4494V11.3748H3.93897Z" fill="#3698FB"/>
<path d="M10.7258 5.72031V11.3748H11.2153V11.8718H8.44482V11.3859H8.93439V5.73136H8.44482V5.23438H11.2153V5.72031H10.7258Z" fill="#3698FB"/>
<path d="M14.3644 5.72031V11.3748H14.854V11.8718H12.0835V11.3859H12.5731V5.72031H12.0835V5.23438H14.854V5.72031H14.3644Z" fill="#3698FB"/>
<path d="M7.08759 5.71964V11.3742H7.57715V11.8601H4.80664V11.3742H5.29621V5.71964H4.80664V5.22266H7.56603C7.56603 5.22266 7.56603 5.25579 7.56603 5.27788C7.56603 5.42145 7.56603 5.55398 7.56603 5.70859H7.07646L7.08759 5.71964Z" fill="#3698FB"/>
<path d="M16 12.125H0V12.7987H16V12.125Z" fill="#3698FB"/>
</g>
<defs>
<clipPath id="clip0_2385_68481">
<rect width="16" height="12.8" fill="white"/>
</clipPath>
</defs>
</svg>
