<svg width="16" height="17" viewBox="0 0 16 17" fill="none" xmlns="http://www.w3.org/2000/svg">
<g clip-path="url(#clip0_2386_68557)">
<path d="M8.49203 0.00604364C8.09764 0.018766 7.87213 0.018766 7.4771 0.00445334C3.04621 -0.153622 0.0195552 3.92263 -0.00111864 8.08031C-0.0202022 11.9285 2.63846 15.9911 6.72998 16.2532C7.00987 16.271 7.30503 16.2398 7.58684 16.2532H9.26937L10.0054 16.1479C13.5934 15.4558 15.9286 11.9307 15.9664 8.39869C15.9671 8.34525 15.9461 8.25779 15.9989 8.22471V8.0027C15.8335 3.80527 13.0301 -0.138356 8.49203 0.00604364ZM4.93072 1.01557C5.04776 0.96563 5.78375 0.693689 5.841 0.735991C5.84132 0.737581 5.84132 0.739172 5.84132 0.740762C5.84132 0.745215 5.84005 0.749668 5.83814 0.753484C5.83242 0.765252 5.81969 0.77384 5.80888 0.782746C5.77835 0.807873 5.28599 1.11639 5.25355 1.11639H4.76183C4.77805 1.06995 4.88428 1.03529 4.93072 1.01557ZM2.81085 2.48945C2.81562 2.48373 2.82103 2.47705 2.82675 2.47037C2.85283 2.43984 2.88973 2.4004 2.93426 2.35555C2.93934 2.35046 2.94443 2.34537 2.94952 2.34028C2.95461 2.3352 2.9597 2.32979 2.96511 2.3247C2.9702 2.31929 2.9756 2.31389 2.98101 2.3088C2.98642 2.30339 2.99182 2.29798 2.99755 2.29226C3.00009 2.28971 3.00296 2.28685 3.00582 2.28431C3.01441 2.27604 3.02299 2.26745 3.0319 2.25918C3.06084 2.23087 3.0917 2.20161 3.12318 2.17235C3.12954 2.16631 3.13591 2.16026 3.14227 2.15454C3.14863 2.14849 3.15531 2.14245 3.16167 2.13673C3.17439 2.12496 3.18743 2.11287 3.20047 2.10079C3.21351 2.08902 3.22655 2.07693 3.23959 2.06516C3.25263 2.05339 3.26599 2.04163 3.27903 2.02986C3.28571 2.02382 3.29239 2.01777 3.29907 2.01237C3.33183 1.98342 3.36427 1.95511 3.39576 1.92776C3.47178 1.86256 3.54302 1.80467 3.60059 1.76205C3.61045 1.75505 3.61967 1.74838 3.62858 1.74201C3.64067 1.73343 3.65212 1.72579 3.66261 1.71911C3.66738 1.71625 3.67184 1.71339 3.67629 1.71053C3.67979 1.70862 3.68297 1.70639 3.68647 1.7048C3.68965 1.70289 3.69283 1.70098 3.69569 1.69971C3.70778 1.69335 3.71764 1.68953 3.72495 1.68826C3.72686 1.68794 3.72845 1.68763 3.73004 1.68763H4.47589C4.41037 1.74551 4.34708 1.80531 4.28537 1.86701C4.27011 1.88228 4.25452 1.89786 4.23926 1.91313C4.20872 1.9443 4.17851 1.97547 4.14829 2.00664C4.1273 2.02859 4.10631 2.05085 4.08531 2.07311C4.06178 2.09824 4.03792 2.12369 4.01439 2.14913C3.92533 2.24423 3.83659 2.33997 3.74499 2.43379C3.7434 2.43538 3.74181 2.43729 3.74022 2.4392C3.73799 2.44206 3.73608 2.44493 3.73449 2.44811C3.7329 2.45129 3.731 2.45447 3.72972 2.45765C3.72813 2.46147 3.72654 2.46528 3.72527 2.4691C3.72495 2.46974 3.72495 2.47005 3.72463 2.47069C3.72368 2.47387 3.72273 2.47705 3.72209 2.48023C3.72114 2.48341 3.7205 2.48659 3.71986 2.48945C3.71986 2.48977 3.71986 2.49041 3.71986 2.49105C3.71955 2.49264 3.71923 2.49423 3.71891 2.49582C3.717 2.50568 3.71605 2.51267 3.71446 2.51267H2.79399C2.79844 2.50599 2.80417 2.49836 2.81117 2.48945H2.81085ZM2.26983 3.08391H3.238L2.60316 4.19457H1.55578C1.74694 3.79891 1.99693 3.42805 2.26983 3.08391ZM1.28607 4.76581H2.31754L2.01602 5.62266H1.00013L0.965147 5.55682L1.28607 4.76581ZM0.794031 6.16209H1.9047L1.77175 6.96519L1.73008 7.01863H0.666807L0.794031 6.16209ZM0.611147 8.4095C0.607966 8.40728 0.605103 8.40505 0.602559 8.40251C0.599696 8.39996 0.597152 8.39742 0.594925 8.39455C0.593653 8.39328 0.592699 8.39201 0.591745 8.39074C0.590791 8.38947 0.589836 8.38787 0.588882 8.3866C0.586338 8.38247 0.584111 8.37833 0.582203 8.37388C0.578068 8.36402 0.575842 8.35321 0.574252 8.34176C0.573934 8.33889 0.573615 8.33635 0.573297 8.33349C0.572025 8.32458 0.571389 8.31536 0.570117 8.3055C0.560893 8.22885 0.559621 8.1471 0.562483 8.06377C0.563438 8.0396 0.564392 8.01543 0.565982 7.99125C0.5663 7.97853 0.567254 7.96581 0.568208 7.9534C0.570117 7.92891 0.572025 7.90474 0.573934 7.88025C0.574888 7.86785 0.575842 7.85512 0.577114 7.8424C0.579341 7.81791 0.581567 7.79342 0.584111 7.76925C0.591109 7.69673 0.598424 7.62549 0.603513 7.55837H1.7145C1.73994 7.82873 1.62862 8.09781 1.711 8.36497L1.66679 8.41491H0.619098C0.616235 8.413 0.613691 8.41141 0.611147 8.4095ZM0.635319 8.95466H1.69859C1.7005 8.95593 1.70241 8.9572 1.70432 8.95848C1.70877 8.96134 1.71259 8.96452 1.71577 8.9677C1.71704 8.96865 1.71799 8.96961 1.71863 8.97056C1.72944 8.98169 1.73581 8.99442 1.74026 9.00936C1.74249 9.017 1.74408 9.02527 1.74567 9.03417C1.75139 9.06471 1.75616 9.09588 1.76061 9.12768C1.76729 9.17603 1.7727 9.22533 1.77747 9.27526C1.77906 9.29085 1.78065 9.30643 1.78192 9.32202C1.78606 9.36623 1.78988 9.41076 1.79401 9.45528C1.79592 9.47723 1.79783 9.49886 1.80005 9.5208C1.80037 9.52462 1.80069 9.52876 1.80133 9.53289C1.80419 9.56183 1.80737 9.59078 1.81087 9.6194C1.81182 9.62958 1.81309 9.63944 1.81468 9.64962C1.81596 9.66075 1.81755 9.67188 1.81914 9.6827C1.82518 9.72627 1.8325 9.76921 1.8414 9.81119H0.730419L0.635319 8.95466ZM0.889131 10.3824H1.9524C2.03764 10.5764 2.09331 10.7908 2.15596 11.0004C2.17664 11.0701 2.19827 11.1394 2.22212 11.2075H1.14294L0.889131 10.3824ZM1.39707 11.7787H2.47625C2.48452 11.8035 2.49311 11.828 2.50201 11.8525C2.50869 11.8709 2.51569 11.8894 2.523 11.9075C2.5265 11.9167 2.53 11.9257 2.53382 11.9346C2.53732 11.9435 2.54113 11.9527 2.54495 11.9616C2.55258 11.9797 2.56022 11.9975 2.56817 12.0153C2.57612 12.0335 2.58407 12.051 2.59234 12.0688C2.60061 12.0866 2.60888 12.1041 2.61747 12.1216C2.62606 12.1394 2.63464 12.1569 2.64355 12.1741C2.66136 12.2087 2.67949 12.2437 2.69794 12.2781C2.71034 12.3013 2.72275 12.3242 2.73547 12.3468C2.7431 12.3604 2.75042 12.3741 2.75805 12.3875C2.76727 12.404 2.7765 12.4202 2.78604 12.4365C2.81594 12.4889 2.84647 12.5411 2.877 12.5933C2.93457 12.6919 2.99246 12.7901 3.04749 12.8894H2.03192L1.39707 11.7787ZM3.34901 14.2857C3.33469 14.2857 3.2943 14.257 3.23864 14.21C3.23069 14.2036 3.22242 14.1966 3.21415 14.1893C3.18584 14.1648 3.15435 14.1365 3.12064 14.1053C3.10982 14.0955 3.09869 14.085 3.08724 14.0745C3.07039 14.0589 3.05321 14.0423 3.03572 14.0258C3.01822 14.0089 3.00041 13.9918 2.98228 13.9743C2.93457 13.9282 2.88591 13.8798 2.83852 13.8318C2.82771 13.8207 2.81689 13.8098 2.8064 13.799C2.78222 13.7742 2.75869 13.75 2.73579 13.7262C2.72497 13.7147 2.71448 13.7036 2.70398 13.6925C2.69094 13.6785 2.67822 13.6648 2.66613 13.6518C2.65882 13.6441 2.65182 13.6362 2.64482 13.6285C2.6356 13.6184 2.62669 13.6085 2.6181 13.599C2.60538 13.5847 2.5933 13.571 2.58216 13.5579C2.57835 13.5535 2.57485 13.5494 2.57135 13.5452C2.56467 13.5369 2.55799 13.529 2.55195 13.5217C2.5459 13.5144 2.5405 13.5074 2.53541 13.5007C2.52269 13.4841 2.51346 13.4708 2.50806 13.4606H3.44442L4.15847 14.2857H3.34901ZM5.841 15.5229C5.81779 15.52 5.79457 15.5166 5.77167 15.5127C5.737 15.507 5.70265 15.5003 5.6683 15.4927C5.64699 15.4879 5.62568 15.4828 5.60469 15.4774C5.58338 15.472 5.56238 15.4663 5.54107 15.4606C5.52676 15.4568 5.51277 15.4526 5.49877 15.4485C5.47905 15.4428 5.45965 15.4367 5.43993 15.4304C5.42117 15.4243 5.40208 15.4183 5.38332 15.4119C5.36455 15.4055 5.34579 15.3992 5.32702 15.3925C5.30857 15.3861 5.28981 15.3795 5.27104 15.3725C5.25228 15.3658 5.23351 15.3588 5.21506 15.3518C5.17785 15.3378 5.14064 15.3235 5.10374 15.3092C4.99274 15.2659 4.88237 15.2211 4.77201 15.1797L4.19027 14.8569C4.36712 14.8871 4.68486 14.8159 4.84102 14.8569C4.84739 14.8585 4.86138 14.8664 4.8811 14.8795C4.88396 14.8811 4.88683 14.883 4.89001 14.8852C4.89414 14.8877 4.89827 14.8906 4.90273 14.8938C4.94249 14.9205 4.99687 14.9596 5.0554 15.0022C5.06812 15.0115 5.08084 15.021 5.09388 15.0302C5.10438 15.0379 5.11456 15.0455 5.12505 15.0531C5.15527 15.0754 5.18548 15.0977 5.21443 15.1187C5.251 15.1457 5.28567 15.1711 5.31589 15.1928C5.32797 15.2017 5.33942 15.2096 5.3496 15.2166C5.369 15.2306 5.38522 15.2417 5.39699 15.2494C5.39763 15.25 5.39826 15.2507 5.39922 15.251C5.40017 15.2516 5.40145 15.2522 5.40272 15.2529C5.40304 15.2532 5.40335 15.2532 5.40399 15.2535C5.40781 15.2561 5.4129 15.2589 5.41926 15.2624C5.42339 15.2646 5.42785 15.2672 5.43293 15.2701C5.4377 15.2729 5.44311 15.2758 5.44884 15.279C5.45742 15.2837 5.46697 15.2888 5.47714 15.2945C5.48382 15.2984 5.49114 15.3022 5.49845 15.3063C5.49941 15.3069 5.50036 15.3076 5.50163 15.3082C5.51149 15.3136 5.52199 15.3194 5.5328 15.3254C5.53439 15.3264 5.53598 15.3273 5.53758 15.3283C5.56238 15.3419 5.58878 15.3569 5.6155 15.3718C5.67275 15.4043 5.73032 15.438 5.77326 15.4653C5.77676 15.4676 5.78057 15.4701 5.78407 15.4723C5.78757 15.4746 5.79107 15.4768 5.79425 15.479C5.80411 15.4857 5.8127 15.4917 5.81969 15.4971C5.82669 15.5022 5.83242 15.507 5.83623 15.5111C5.83751 15.5124 5.83846 15.5134 5.83941 15.5146C5.84005 15.5156 5.84069 15.5162 5.841 15.5169C5.84196 15.5181 5.84228 15.5194 5.84228 15.5204C5.84228 15.5216 5.84228 15.5223 5.841 15.5229Z" fill="#F8E000"/>
</g>
<defs>
<clipPath id="clip0_2386_68557">
<rect width="16" height="16.2589" fill="white"/>
</clipPath>
</defs>
</svg>
