<svg width="108" height="92" viewBox="0 0 108 92" fill="none" xmlns="http://www.w3.org/2000/svg">
<rect x="-12" y="-28" width="120" height="120" rx="60" fill="#1388FF" fill-opacity="0.12"/>
<g clip-path="url(#clip0_2560_83132)">
<path fill-rule="evenodd" clip-rule="evenodd" d="M28.6622 28.6445H67.3378C69.9139 28.6445 72 30.7307 72 33.3067V57.3363C72 59.9124 69.9139 62.0012 67.3378 62.0012H28.6622C26.0861 62.0012 24 59.9124 24 57.3363V33.3067C24 30.7307 26.0861 28.6445 28.6622 28.6445ZM36.1884 45.3202C36.1884 51.8424 41.4778 57.1344 48.0027 57.1344C54.5249 57.1344 59.8116 51.8424 59.8116 45.3202C59.8116 38.798 54.5276 33.5113 48.0027 33.5113C41.4778 33.5113 36.1884 38.798 36.1884 45.3202ZM50.3878 40.2103H51.7633C51.9517 40.2103 52.2559 39.9923 52.377 39.8442C52.8454 39.2601 52.6058 38.4445 51.8709 38.2695L43.661 38.283C42.5708 38.7917 42.8669 40.1107 44.0567 40.213C44.4791 40.2489 44.9223 40.2302 45.3668 40.2114C46.5877 40.1599 47.8173 40.108 48.6462 41.1874C48.6589 41.2047 48.6735 41.2181 48.6874 41.2309C48.7234 41.2641 48.7544 41.2928 48.735 41.3705H43.7552C43.6717 41.3705 43.3353 41.5939 43.2653 41.6773C42.9477 42.0703 42.9746 42.7083 43.3514 43.0555C43.451 43.1444 43.8279 43.3274 43.9355 43.3274H49.1657C49.0499 44.4499 47.984 45.427 46.8723 45.5266C46.4765 45.5614 46.0048 45.5382 45.5283 45.5147C44.8997 45.4838 44.2629 45.4524 43.7821 45.5535C43.3057 45.6531 42.9611 46.1107 42.988 46.5952C43.0048 46.9227 43.306 47.2502 43.5447 47.5099C43.5748 47.5426 43.6039 47.5742 43.6314 47.6047C44.4376 48.5051 45.2882 49.3691 46.1388 50.2332C46.9894 51.0973 47.84 51.9613 48.6462 52.8617C49.5372 53.5562 50.6704 52.5387 50.1105 51.5804L46.3824 47.6693L46.2935 47.4835H47.1765C47.2437 47.4835 47.7552 47.3489 47.8682 47.3166C49.6421 46.816 50.9853 45.1551 51.1899 43.3355C52.019 43.4055 52.7323 43.0044 52.5843 42.0784C52.4659 41.3217 51.6288 41.3427 51.0286 41.3577C51.0011 41.3584 50.9741 41.3591 50.9477 41.3597L50.3878 40.2103Z" fill="#1388FF"/>
</g>
<defs>
<clipPath id="clip0_2560_83132">
<rect width="48" height="33.3567" fill="white" transform="translate(24 28.6445)"/>
</clipPath>
</defs>
</svg>
