<svg width="82" height="82" viewBox="0 0 82 82" fill="none" xmlns="http://www.w3.org/2000/svg">
<g clip-path="url(#clip0_2431_73837)">
<rect width="82" height="82" rx="41" fill="#1388FF" fill-opacity="0.12"/>
<circle cx="70" cy="41" r="4" fill="white"/>
<line x1="-19" y1="40.75" x2="101" y2="40.75" stroke="white" stroke-width="0.5"/>
<circle cx="12" cy="41" r="4" fill="#1388FF"/>
<circle cx="41" cy="41" r="18" fill="white"/>
<path fill-rule="evenodd" clip-rule="evenodd" d="M23 41C23 36.2261 24.8964 31.6477 28.2721 28.2721C31.6477 24.8964 36.2261 23 41 23C45.7739 23 50.3523 24.8964 53.7279 28.2721C57.1036 31.6477 59 36.2261 59 41C59 45.7739 57.1036 50.3523 53.7279 53.7279C50.3523 57.1036 45.7739 59 41 59C36.2261 59 31.6477 57.1036 28.2721 53.7279C24.8964 50.3523 23 45.7739 23 41ZM39.085 47.9644C39.5724 48.3704 40.2983 48.2971 40.6946 47.8017L49.5872 36.6849C50.0008 36.1679 49.9169 35.4135 49.3999 35C48.883 34.5864 48.1287 34.6702 47.7151 35.187L39.6272 45.2936L34.2896 40.8463C33.7806 40.4222 33.0242 40.491 32.6001 40.9999C32.1759 41.5089 32.2447 42.2654 32.7538 42.6896L39.085 47.9644Z" fill="#1388FF"/>
</g>
<defs>
<clipPath id="clip0_2431_73837">
<rect width="82" height="82" rx="41" fill="white"/>
</clipPath>
</defs>
</svg>
