<svg width="16" height="13" viewBox="0 0 16 13" fill="none" xmlns="http://www.w3.org/2000/svg">
<path d="M15.1988 2.89475C15.1988 2.89475 15.1654 2.83953 15.1432 2.82849C14.9206 2.74014 14.6981 2.65179 14.4756 2.57448C13.3852 2.15481 12.2948 1.73513 11.2155 1.32651C10.1696 0.928922 9.13481 0.531338 8.08892 0.133754C8.02216 0.111665 7.96653 0.111665 7.89977 0.133754C7.33231 0.354634 6.76486 0.575514 6.1974 0.78535C5.1515 1.18293 4.10561 1.58052 3.05971 1.98915C2.32536 2.26525 1.591 2.55239 0.85665 2.82849C0.801018 2.85058 0.778764 2.87267 0.789891 2.92789C0.789891 3.04937 0.789891 3.1819 0.789891 3.30338C0.789891 3.41382 0.789891 3.53531 0.789891 3.64575H15.2099C15.2099 3.64575 15.2099 3.62366 15.2099 3.61261C15.2099 3.36965 15.2099 3.12668 15.2099 2.88371L15.1988 2.89475ZM7.97765 2.58552C7.66611 2.58552 7.39907 2.32047 7.39907 2.00019C7.39907 1.67991 7.67723 1.39277 7.98878 1.39277C8.3337 1.39277 8.60074 1.66887 8.60074 2.00019C8.60074 2.33151 8.3337 2.57448 7.97765 2.57448V2.58552Z" fill="#3698FB"/>
<path d="M15.6552 3.89844H0.322754V5.08015H15.6552V3.89844Z" fill="#3698FB"/>
<path d="M3.93897 11.4764V11.9734H1.16846V11.4874H1.6469V5.83292H1.16846V5.33594H3.93897V5.82187H3.4494V11.4764H3.93897Z" fill="#3698FB"/>
<path d="M10.7258 5.82187V11.4764H11.2153V11.9734H8.44482V11.4874H8.93439V5.83292H8.44482V5.33594H11.2153V5.82187H10.7258Z" fill="#3698FB"/>
<path d="M14.3644 5.82187V11.4764H14.854V11.9734H12.0835V11.4874H12.5731V5.82187H12.0835V5.33594H14.854V5.82187H14.3644Z" fill="#3698FB"/>
<path d="M7.08759 5.8212V11.4757H7.57715V11.9617H4.80664V11.4757H5.29621V5.8212H4.80664V5.32422H7.56603C7.56603 5.32422 7.56603 5.35735 7.56603 5.37944C7.56603 5.52301 7.56603 5.65554 7.56603 5.81015H7.07646L7.08759 5.8212Z" fill="#3698FB"/>
<path d="M16 12.2266H0V12.9002H16V12.2266Z" fill="#3698FB"/>
</svg>
