<svg width="400" height="592" viewBox="0 0 400 592" fill="none" xmlns="http://www.w3.org/2000/svg">
<g clip-path="url(#clip0_12018_4056)">
<rect width="400" height="590.114" transform="translate(0 0.941406)" fill="white"/>
<g clip-path="url(#clip1_12018_4056)">
<rect y="0.941406" width="400" height="360" fill="#1D1D1D"/>
<circle opacity="0.04" cx="202" cy="234.941" r="222" fill="#D9D9D9"/>
<circle opacity="0.06" cx="202" cy="234.94" r="184.584" fill="#D9D9D9"/>
<path d="M301.642 338.251C298.536 336.799 294.965 335.601 291.772 334.038C288.341 332.36 278.368 326.191 275.563 325.62C275.059 325.517 274.714 325.846 274.274 325.957C274.595 324.105 273.631 325.057 272.996 324.747C272.929 324.716 271.949 324.018 271.89 323.97C269.152 321.86 264.658 313.941 261.964 310.689C256.097 303.604 248.08 295.384 239.36 292.234C239.218 287.061 238.71 281.896 239.36 276.763C245.68 270.44 249.968 262.244 252.642 253.747C253.316 251.609 254.431 244.71 255.427 243.441C255.99 242.719 259.866 241.485 261.131 240.814C269.577 236.34 277.586 225.07 277.443 215.275C279.324 214.954 280.125 211.959 280.236 210.332C280.458 207.071 279.181 204.6 277.84 201.791C283.433 202.815 290.157 194.512 290.518 189.645C290.828 185.487 286.972 186.689 284.227 185.285C278.832 182.528 275.107 174.05 277.027 168.247C277.899 165.605 281.378 162.828 282.775 160.11C289.031 147.936 270.949 146.409 270.327 136.475C270.049 132.02 270.069 130.104 267.994 125.753C261.361 111.856 245.91 107.124 231.43 107.77C235.862 96.147 230.911 93.4654 220.323 97.8608L224.441 98.2932C226.979 98.5986 228.487 99.3801 228.253 102.217C225.107 102.224 222.096 101.602 220.136 104.617C219.934 104.93 219.129 106.616 219.129 106.782V113.328L215.17 107.965C204.915 98.7494 185.168 89.8911 172.188 97.9282C171.632 98.2733 170.165 99.031 170.335 99.8403C176.964 97.0793 184.489 97.2419 191.273 99.3325L195.72 101.423C184.7 99.2333 172.505 100.868 165.686 110.555C141.975 109.694 124.35 121.262 124.283 146.452C124.279 148.194 125.401 153.442 125.044 154.692C124.767 155.667 123.394 156.112 122.866 156.707C118.419 161.721 114.917 167.989 117.38 174.808C119.07 179.485 126.774 182.083 127.083 186.57C127.19 188.137 123.723 192.088 122.783 194.111C119.606 200.95 121.371 206.992 124.711 213.296C124.053 213.569 124.636 214.557 124.755 215.033C128.103 228.58 133.633 241.231 149.128 243.425C151.306 251.854 153.575 261.312 158.418 268.647C159.783 270.709 163.71 274.466 164.377 276.374C165.043 278.282 165.095 288.969 164.801 291.258C164.706 292.004 164.024 292.095 163.98 292.242C163.21 292.151 162.643 292.536 161.989 292.825C150.167 298.074 139.405 312.704 132.244 323.184C131.53 323.542 130.721 323.589 129.991 323.906C120.018 328.23 110.041 334.74 99.985 339.163C99.5407 339.596 98.5926 339.013 98.5291 339.052C74.8939 316.381 58.9308 285.76 54.5513 253.112C41.9244 158.98 119.26 78.5932 213.766 87.1539C266.483 91.9302 313.44 126.57 334.234 174.951C358.179 230.655 345.183 296.407 301.638 338.259L301.642 338.251Z" fill="#C1C3C2" fill-opacity="0.1"/>
<path d="M132.252 323.172C129.122 327.754 125.929 332.49 123.203 337.33C122.747 338.143 119.982 343.054 120.347 343.4L147.422 346.672C149.219 347.513 149.092 350.893 148.814 352.627C147.215 362.651 127.448 378.003 119.827 384.727C119.312 385.184 118.729 385.342 118.764 386.239C104.023 382.47 85.767 378.495 71.958 372.549C69.9467 371.684 65.0912 370.006 65.6981 367.507C66.6422 363.611 73.878 353.849 76.9048 350.917C82.8632 345.137 91.7333 343.146 98.5327 339.032C98.5962 338.992 99.5443 339.575 99.9886 339.143C110.045 334.716 120.022 328.206 129.995 323.886C130.729 323.569 131.538 323.525 132.248 323.164L132.252 323.172Z" fill="#DADADA"/>
<path d="M271.889 323.965C271.949 324.008 272.929 324.707 272.996 324.742C273.627 325.052 274.595 324.104 274.273 325.952C274.714 325.841 275.059 325.512 275.563 325.615C278.367 326.186 288.34 332.355 291.772 334.033C294.969 335.596 298.539 336.794 301.642 338.246C315.042 344.514 324.035 346.815 332.437 360.013C333.262 361.31 337.138 367.927 336.892 368.95C336.757 369.506 334.417 370.652 333.77 370.969C319.398 378.007 300.142 381.581 284.584 385.85C276.777 379.129 267.942 372.402 261.373 364.432C257.862 360.175 251.428 351.872 255.506 346.569L282.997 343.399L271.889 323.965Z" fill="#DADADA"/>
<path d="M163.988 292.228C163.5 293.986 164.023 298.937 163.591 301.352C163.282 303.078 161.806 307.025 160.814 308.493C160.14 309.493 159.366 310.143 158.434 310.873C158.359 310.933 157.859 310.726 157.708 310.929C157.629 311.032 157.371 313.011 157.295 313.507C154.36 332.465 153.551 359.909 156.105 378.859C156.827 384.203 158.216 389.399 159.62 394.576C149.826 392.819 139.912 391.45 130.193 389.296C126.313 388.435 122.584 387.221 118.764 386.246C118.729 385.345 119.316 385.186 119.827 384.734C127.448 378.01 147.215 362.658 148.814 352.633C149.092 350.9 149.219 347.52 147.422 346.679L120.347 343.406C119.978 343.061 122.743 338.15 123.203 337.337C125.925 332.497 129.118 327.761 132.252 323.179C139.412 312.698 150.175 298.068 161.996 292.819C162.651 292.53 163.214 292.145 163.988 292.236V292.228Z" fill="#7C7C7C"/>
<path d="M271.889 323.97L282.997 343.404L255.506 346.574C251.424 351.878 257.862 360.181 261.373 364.437C267.942 372.407 276.776 379.131 284.583 385.855C284.048 386.002 282.763 386.854 281.711 387.148C269.319 390.631 256.362 392.198 243.724 394.578C245.473 387.731 247.024 380.813 247.687 373.752C249.579 353.599 247.96 332.162 245.707 312.069C245.497 310.185 245.537 311.288 244.914 310.879C240.197 307.773 239.602 301.382 239.36 296.201C239.293 294.745 239.392 293.321 239.36 292.234C248.079 295.384 256.097 303.608 261.964 310.689C264.657 313.942 269.152 321.86 271.889 323.97Z" fill="#7C7C7C"/>
<path d="M124.715 213.286C121.374 206.987 119.609 200.941 122.787 194.102C123.727 192.079 127.194 188.128 127.087 186.561C126.777 182.07 119.074 179.476 117.384 174.799C114.92 167.979 118.427 161.712 122.87 156.697C123.398 156.102 124.77 155.658 125.048 154.682C125.401 153.432 124.282 148.184 124.286 146.443C124.354 121.252 141.979 109.685 165.689 110.546C172.505 100.854 184.699 99.2239 195.723 101.414L191.276 99.3231C184.493 97.2325 176.968 97.0698 170.339 99.8308C170.168 99.0216 171.636 98.2639 172.191 97.9188C185.167 89.8817 204.919 98.7399 215.173 107.955L219.132 113.319V106.773C219.132 106.61 219.938 104.92 220.14 104.607C222.1 101.596 225.115 102.215 228.256 102.207C228.491 99.3707 226.983 98.5892 224.444 98.2837L220.326 97.8513C230.914 93.4599 235.865 96.1416 231.434 107.761C245.913 107.114 261.365 111.847 267.998 125.743C270.076 130.095 270.052 132.011 270.33 136.466C270.953 146.399 289.034 147.926 282.778 160.101C281.382 162.818 277.907 165.599 277.03 168.237C275.11 174.041 278.835 182.518 284.23 185.275C286.975 186.68 290.831 185.478 290.522 189.635C290.161 194.503 283.437 202.805 277.844 201.782C279.184 204.594 280.462 207.062 280.24 210.323C280.129 211.949 279.327 214.944 277.447 215.266C277.411 212.663 275.987 207.558 273.853 205.967C268.819 202.218 262.396 208.998 258.806 212.092L259.215 200.457C248.329 195.756 248.171 182.066 248.504 171.895C240.943 167.932 236.948 159.296 236.583 151.005C235.341 150.794 235.98 151.382 235.798 151.981C231.668 165.504 216.07 165.464 204.701 166.92C197.512 167.841 191.003 172.363 187.198 178.381C187.659 172.006 189.717 165.579 190.17 159.133C190.316 157.054 190.253 154.496 190.174 152.389C190.158 151.909 190.471 150.913 189.781 151.009C185.77 162.691 177.166 179.23 164.472 183.026C158.787 184.728 159.049 182.974 154.875 188.108C150.21 193.852 146.842 201.1 147.767 208.68C148.005 210.616 149.183 212.159 149.306 214.079L128.789 206.213C127.722 205.606 127.095 208.109 127.095 208.728V215.869C127.095 215.988 127.591 216.309 127.499 216.654C126.543 217.178 125.211 214.23 124.715 213.29V213.286Z" fill="#7C7C7C"/>
<path d="M124.715 213.287C125.214 214.228 126.547 217.175 127.499 216.651C127.591 216.306 127.095 215.985 127.095 215.866V208.725C127.095 208.107 127.722 205.603 128.789 206.21L149.306 214.077C149.179 212.157 148.001 210.618 147.767 208.678C146.842 201.097 150.21 193.849 154.875 188.105C159.045 182.968 158.787 184.721 164.472 183.023C177.166 179.227 185.77 162.693 189.781 151.006C190.471 150.911 190.154 151.911 190.174 152.387C190.253 154.493 190.316 157.052 190.17 159.13C189.717 165.577 187.659 172.003 187.198 178.378C191.003 172.36 197.512 167.838 204.701 166.918C216.07 165.462 231.664 165.505 235.798 151.978C235.98 151.375 235.341 150.788 236.583 151.002C236.948 159.297 240.943 167.929 248.504 171.892C248.171 182.063 248.325 195.753 259.215 200.454L258.806 212.089C262.392 208.995 268.819 202.216 273.853 205.964C275.987 207.555 277.411 212.657 277.447 215.263C277.59 225.057 269.58 236.328 261.135 240.802C259.869 241.473 255.993 242.71 255.43 243.428C254.438 244.702 253.32 251.6 252.645 253.735C249.972 262.228 245.683 270.428 239.364 276.751C232.501 283.618 217.236 296.07 207.422 296.975C188.444 298.728 178.892 289.247 165.979 277.338C165.491 276.886 165.162 276.346 164.388 276.354C163.718 274.446 159.791 270.693 158.43 268.627C153.582 261.292 151.317 251.834 149.139 243.405C133.644 241.211 128.11 228.56 124.766 215.013C124.647 214.537 124.064 213.549 124.723 213.276L124.715 213.287Z" fill="#DADADA"/>
<path d="M244.914 310.876C240.197 307.77 239.602 301.379 239.36 296.198C239.293 294.742 239.392 293.318 239.36 292.231C239.217 287.062 238.71 281.893 239.36 276.76C232.497 283.627 217.232 296.079 207.418 296.984C188.44 298.737 178.888 289.256 165.975 277.347C165.487 276.895 165.158 276.355 164.385 276.363C165.035 278.22 165.103 288.958 164.809 291.247C164.714 291.993 164.031 292.084 163.988 292.231C163.5 293.989 164.024 298.939 163.591 301.355C163.282 303.081 161.806 307.028 160.814 308.496C160.14 309.495 159.366 310.146 158.434 310.876C158.148 311.134 158.775 312.161 158.831 312.463C159.545 316.287 161.564 320.333 163.825 323.535C165.757 326.272 173.171 333.781 176.186 334.583C177.591 334.955 178.376 334.269 179.284 334.321C193.942 335.134 208.819 335.039 223.707 335.055C224.429 335.055 225.166 335.459 225.698 335.432C227.753 335.328 234.751 329.656 236.389 327.938C240.721 323.396 243.557 317.905 245.707 312.066C245.497 310.182 245.537 311.285 244.914 310.876Z" fill="#C1C1C1"/>
</g>
<rect x="20.5" y="384.555" width="99" height="30" rx="15" fill="white"/>
<rect x="20.5" y="384.555" width="99" height="30" rx="15" stroke="#D9D9D9"/>
<path d="M31.376 393.695H33.104V404.415L32.192 403.471H38.64V405.055H31.376V393.695ZM40.7041 393.695H42.4321V405.055H40.7041V393.695ZM47.7165 395.279H44.2285V393.695H52.9325V395.279H49.4445V405.055H47.7165V395.279ZM58.9669 405.311C57.9429 405.311 57.0415 405.076 56.2629 404.607C55.4842 404.127 54.8762 403.439 54.4389 402.543C54.0015 401.647 53.7829 400.596 53.7829 399.391C53.7829 398.185 53.9962 397.135 54.4229 396.239C54.8602 395.332 55.4682 394.639 56.2469 394.159C57.0362 393.679 57.9482 393.439 58.9829 393.439C60.3589 393.439 61.4415 393.785 62.2309 394.479C63.0202 395.161 63.5429 396.143 63.7989 397.423L61.9749 397.519C61.8255 396.729 61.5002 396.116 60.9989 395.679C60.4975 395.241 59.8255 395.023 58.9829 395.023C58.3002 395.023 57.7029 395.199 57.1909 395.551C56.6789 395.903 56.2789 396.409 55.9909 397.071C55.7135 397.721 55.5749 398.495 55.5749 399.391C55.5749 400.287 55.7135 401.065 55.9909 401.727C56.2789 402.377 56.6789 402.873 57.1909 403.215C57.7029 403.556 58.2949 403.727 58.9669 403.727C59.8735 403.727 60.5775 403.492 61.0789 403.023C61.5909 402.543 61.9162 401.865 62.0549 400.991L63.8789 401.087C63.6549 402.409 63.1215 403.444 62.2789 404.191C61.4362 404.937 60.3322 405.311 58.9669 405.311ZM65.9073 393.695H68.2753L71.6513 403.023L75.0273 393.695H77.3953V405.055H75.6673V396.735L72.6112 405.039H70.6913L67.6353 396.735V405.055H65.9073V393.695ZM83.9865 405.311C83.0585 405.311 82.2478 405.071 81.5545 404.591C80.8612 404.111 80.3225 403.428 79.9385 402.543C79.5652 401.647 79.3785 400.596 79.3785 399.391C79.3785 398.185 79.5652 397.135 79.9385 396.239C80.3225 395.343 80.8612 394.655 81.5545 394.175C82.2478 393.684 83.0585 393.439 83.9865 393.439C84.9358 393.439 85.7572 393.679 86.4505 394.159C87.1438 394.639 87.6772 395.327 88.0505 396.223C88.4238 397.119 88.6105 398.175 88.6105 399.391C88.6105 400.596 88.4238 401.647 88.0505 402.543C87.6772 403.428 87.1438 404.111 86.4505 404.591C85.7572 405.071 84.9358 405.311 83.9865 405.311ZM83.9865 403.727C84.5945 403.727 85.1065 403.561 85.5225 403.231C85.9492 402.9 86.2692 402.409 86.4825 401.759C86.7065 401.108 86.8185 400.319 86.8185 399.391C86.8185 398.452 86.7065 397.657 86.4825 397.007C86.2692 396.356 85.9492 395.865 85.5225 395.535C85.1065 395.193 84.5945 395.023 83.9865 395.023C83.3892 395.023 82.8825 395.193 82.4665 395.535C82.0505 395.865 81.7305 396.356 81.5065 397.007C81.2825 397.657 81.1705 398.452 81.1705 399.391C81.1705 400.319 81.2825 401.108 81.5065 401.759C81.7305 402.409 82.0505 402.9 82.4665 403.231C82.8825 403.561 83.3892 403.727 83.9865 403.727ZM94.4455 405.311C93.5708 405.311 92.8028 405.183 92.1415 404.927C91.4802 404.66 90.9682 404.276 90.6055 403.775C90.2428 403.273 90.0615 402.665 90.0615 401.951C90.0615 401.129 90.3068 400.447 90.7975 399.903C91.2882 399.348 91.9655 398.98 92.8295 398.799L92.8615 399.119C92.1575 398.959 91.6028 398.665 91.1975 398.239C90.8028 397.801 90.6055 397.241 90.6055 396.559C90.6055 395.951 90.7602 395.412 91.0695 394.943C91.3788 394.473 91.8215 394.105 92.3975 393.839C92.9842 393.572 93.6668 393.439 94.4455 393.439C95.2242 393.439 95.9015 393.572 96.4775 393.839C97.0535 394.105 97.4962 394.473 97.8055 394.943C98.1148 395.412 98.2695 395.951 98.2695 396.559C98.2695 397.241 98.0722 397.796 97.6775 398.223C97.2828 398.649 96.7282 398.948 96.0135 399.119L96.0455 398.799C96.9095 398.98 97.5868 399.348 98.0775 399.903C98.5788 400.447 98.8295 401.129 98.8295 401.951C98.8295 402.665 98.6428 403.273 98.2695 403.775C97.9068 404.276 97.3948 404.66 96.7335 404.927C96.0722 405.183 95.3095 405.311 94.4455 405.311ZM94.4455 403.727C95.2455 403.727 95.8748 403.561 96.3335 403.231C96.7922 402.9 97.0215 402.415 97.0215 401.775C97.0215 401.135 96.8028 400.633 96.3655 400.271C95.9282 399.908 95.2882 399.727 94.4455 399.727C93.5922 399.727 92.9468 399.908 92.5095 400.271C92.0722 400.633 91.8535 401.135 91.8535 401.775C91.8535 402.415 92.0828 402.9 92.5415 403.231C93.0002 403.561 93.6348 403.727 94.4455 403.727ZM94.4455 398.303C95.1068 398.303 95.6135 398.164 95.9655 397.887C96.3175 397.609 96.4935 397.193 96.4935 396.639C96.4935 396.137 96.3175 395.743 95.9655 395.455C95.6135 395.156 95.1068 395.007 94.4455 395.007C93.7735 395.007 93.2615 395.156 92.9095 395.455C92.5575 395.743 92.3815 396.137 92.3815 396.639C92.3815 397.193 92.5575 397.609 92.9095 397.887C93.2722 398.164 93.7842 398.303 94.4455 398.303ZM104.542 405.311C103.304 405.311 102.323 405.017 101.598 404.431C100.872 403.844 100.467 403.055 100.382 402.063L102.158 401.951C102.232 402.537 102.478 402.98 102.894 403.279C103.32 403.577 103.87 403.727 104.542 403.727C105.288 403.727 105.875 403.519 106.302 403.103C106.739 402.687 106.958 402.105 106.958 401.359C106.958 400.623 106.739 400.041 106.302 399.615C105.875 399.177 105.283 398.959 104.526 398.959C104.014 398.959 103.56 399.071 103.166 399.295C102.782 399.508 102.504 399.796 102.334 400.159H100.542L101.31 393.695H107.966V395.279H102.846L102.366 399.167L102.094 398.927C102.35 398.468 102.723 398.116 103.214 397.871C103.715 397.615 104.286 397.487 104.926 397.487C105.672 397.487 106.334 397.652 106.91 397.983C107.496 398.313 107.95 398.777 108.27 399.375C108.59 399.961 108.75 400.623 108.75 401.359C108.75 402.137 108.574 402.825 108.222 403.423C107.87 404.02 107.374 404.484 106.734 404.815C106.104 405.145 105.374 405.311 104.542 405.311Z" fill="#09090B"/>
<path d="M25.92 446.055V429.015H32.52C34.52 429.015 36.08 429.495 37.2 430.455C38.32 431.415 38.88 432.743 38.88 434.439C38.88 435.575 38.624 436.559 38.112 437.391C37.6 438.207 36.872 438.831 35.928 439.263C34.984 439.695 33.848 439.911 32.52 439.911H29.04V446.055H25.92ZM29.04 437.199H32.376C33.432 437.199 34.24 436.967 34.8 436.503C35.376 436.039 35.664 435.351 35.664 434.439C35.664 433.543 35.376 432.871 34.8 432.423C34.24 431.959 33.432 431.727 32.376 431.727H29.04V437.199ZM40.7088 446.055V433.239H43.7808V446.055H40.7088ZM40.6608 431.535V428.799H43.8528V431.535H40.6608ZM47.3917 449.655V447.279H49.0237C49.4397 447.279 49.7437 447.215 49.9357 447.087C50.1437 446.959 50.3037 446.743 50.4157 446.439L50.7757 445.551H49.8877L45.3037 433.239H48.4957L51.7117 442.671L54.7837 433.239H57.9757L52.9597 447.399C52.6717 448.199 52.2637 448.775 51.7357 449.127C51.2237 449.479 50.5037 449.655 49.5757 449.655H47.3917ZM63.4824 446.343C62.1864 446.343 61.1544 445.919 60.3864 445.071C59.6344 444.207 59.2584 443.015 59.2584 441.495V433.239H62.3304V440.727C62.3304 441.799 62.5064 442.591 62.8584 443.103C63.2264 443.599 63.7784 443.847 64.5144 443.847C65.3464 443.847 65.9864 443.575 66.4344 443.031C66.8984 442.471 67.1304 441.663 67.1304 440.607V433.239H70.2024V446.055H67.3944L67.3224 442.527L67.7064 442.647C67.5144 443.863 67.0584 444.783 66.3384 445.407C65.6184 446.031 64.6664 446.343 63.4824 446.343ZM78.1124 446.343C76.8484 446.343 75.7844 446.159 74.9204 445.791C74.0724 445.423 73.4164 444.911 72.9524 444.255C72.4884 443.599 72.2244 442.855 72.1604 442.023L75.3044 441.879C75.4164 442.551 75.6964 443.071 76.1444 443.439C76.5924 443.807 77.2564 443.991 78.1364 443.991C78.8564 443.991 79.4164 443.879 79.8164 443.655C80.2324 443.415 80.4404 443.047 80.4404 442.551C80.4404 442.263 80.3684 442.023 80.2244 441.831C80.0804 441.639 79.8084 441.471 79.4084 441.327C79.0084 441.183 78.4164 441.039 77.6324 440.895C76.3204 440.671 75.2884 440.399 74.5364 440.079C73.7844 439.743 73.2484 439.327 72.9284 438.831C72.6244 438.335 72.4724 437.719 72.4724 436.983C72.4724 435.783 72.9284 434.815 73.8404 434.079C74.7684 433.327 76.1204 432.951 77.8964 432.951C79.0484 432.951 80.0164 433.143 80.8004 433.527C81.5844 433.895 82.1924 434.407 82.6244 435.063C83.0724 435.703 83.3524 436.439 83.4644 437.271L80.3684 437.415C80.2884 436.983 80.1444 436.607 79.9364 436.287C79.7284 435.967 79.4484 435.727 79.0964 435.567C78.7444 435.391 78.3284 435.303 77.8484 435.303C77.1284 435.303 76.5844 435.447 76.2164 435.735C75.8484 436.023 75.6644 436.407 75.6644 436.887C75.6644 437.223 75.7444 437.503 75.9044 437.727C76.0804 437.951 76.3604 438.135 76.7444 438.279C77.1284 438.407 77.6404 438.527 78.2804 438.639C79.6244 438.847 80.6804 439.119 81.4484 439.455C82.2324 439.775 82.7844 440.191 83.1044 440.703C83.4404 441.199 83.6084 441.799 83.6084 442.503C83.6084 443.319 83.3764 444.015 82.9124 444.591C82.4644 445.167 81.8244 445.607 80.9924 445.911C80.1764 446.199 79.2164 446.343 78.1124 446.343ZM85.5659 446.055V429.015H88.6379V436.167H88.2539C88.3819 435.431 88.6379 434.831 89.0219 434.367C89.4059 433.887 89.8779 433.535 90.4379 433.311C90.9979 433.071 91.6139 432.951 92.2859 432.951C93.2299 432.951 94.0219 433.159 94.6619 433.575C95.3179 433.975 95.8059 434.543 96.1259 435.279C96.4619 436.015 96.6299 436.863 96.6299 437.823V446.055H93.5579V438.567C93.5579 437.527 93.3819 436.751 93.0299 436.239C92.6779 435.711 92.1259 435.447 91.3739 435.447C90.5419 435.447 89.8779 435.719 89.3819 436.263C88.8859 436.807 88.6379 437.599 88.6379 438.639V446.055H85.5659ZM110.388 446.439C109.156 446.439 108.092 446.175 107.196 445.647C106.3 445.103 105.612 444.359 105.132 443.415C104.668 442.455 104.428 441.367 104.412 440.151L107.556 439.983C107.588 441.231 107.844 442.167 108.324 442.791C108.82 443.415 109.508 443.727 110.388 443.727C111.284 443.727 111.98 443.415 112.476 442.791C112.972 442.151 113.22 441.215 113.22 439.983V429.015H116.34V439.983C116.34 441.295 116.092 442.439 115.596 443.415C115.1 444.375 114.404 445.119 113.508 445.647C112.628 446.175 111.588 446.439 110.388 446.439ZM122.864 446.343C121.52 446.343 120.44 446.039 119.624 445.431C118.808 444.807 118.4 443.943 118.4 442.839C118.4 441.735 118.744 440.871 119.432 440.247C120.12 439.623 121.168 439.175 122.576 438.903L126.824 438.063C126.824 437.151 126.616 436.471 126.2 436.023C125.784 435.559 125.168 435.327 124.352 435.327C123.616 435.327 123.032 435.503 122.6 435.855C122.184 436.191 121.896 436.679 121.736 437.319L118.616 437.175C118.872 435.815 119.496 434.775 120.488 434.055C121.48 433.319 122.768 432.951 124.352 432.951C126.176 432.951 127.552 433.415 128.48 434.343C129.424 435.255 129.896 436.567 129.896 438.279V442.935C129.896 443.271 129.952 443.503 130.064 443.631C130.192 443.759 130.376 443.823 130.616 443.823H131.024V446.055C130.928 446.087 130.768 446.111 130.544 446.127C130.336 446.143 130.12 446.151 129.896 446.151C129.368 446.151 128.896 446.071 128.48 445.911C128.064 445.735 127.744 445.439 127.52 445.023C127.296 444.591 127.184 444.007 127.184 443.271L127.448 443.463C127.32 444.023 127.04 444.527 126.608 444.975C126.192 445.407 125.664 445.743 125.024 445.983C124.384 446.223 123.664 446.343 122.864 446.343ZM123.488 444.111C124.176 444.111 124.768 443.975 125.264 443.703C125.76 443.431 126.144 443.055 126.416 442.575C126.688 442.095 126.824 441.527 126.824 440.871V440.151L123.512 440.823C122.824 440.967 122.328 441.183 122.024 441.471C121.736 441.743 121.592 442.103 121.592 442.551C121.592 443.047 121.752 443.431 122.072 443.703C122.408 443.975 122.88 444.111 123.488 444.111ZM132.439 446.055V433.239H135.511V446.055H132.439ZM132.391 431.535V428.799H135.583V431.535H132.391ZM138.632 446.055V433.239H141.416L141.536 436.839L141.176 436.695C141.304 435.799 141.568 435.079 141.968 434.535C142.368 433.991 142.856 433.591 143.432 433.335C144.008 433.079 144.64 432.951 145.328 432.951C146.272 432.951 147.064 433.159 147.704 433.575C148.36 433.991 148.856 434.567 149.192 435.303C149.528 436.023 149.696 436.863 149.696 437.823V446.055H146.624V438.807C146.624 438.087 146.552 437.479 146.408 436.983C146.264 436.487 146.024 436.111 145.688 435.855C145.368 435.583 144.936 435.447 144.392 435.447C143.576 435.447 142.92 435.735 142.424 436.311C141.944 436.887 141.704 437.719 141.704 438.807V446.055H138.632Z" fill="#09090B"/>
<path d="M25.12 474.155V464.635H26.212L26.24 466.231L26.072 466.147C26.2587 465.596 26.5667 465.181 26.996 464.901C27.4347 464.611 27.9387 464.467 28.508 464.467C29.2453 464.467 29.8473 464.649 30.314 465.013C30.79 465.377 31.14 465.853 31.364 466.441C31.5973 467.029 31.714 467.663 31.714 468.345C31.714 469.026 31.5973 469.661 31.364 470.249C31.14 470.837 30.79 471.313 30.314 471.677C29.8473 472.041 29.2453 472.223 28.508 472.223C28.1253 472.223 27.766 472.157 27.43 472.027C27.1033 471.896 26.8233 471.714 26.59 471.481C26.366 471.247 26.212 470.972 26.128 470.655L26.296 470.459V474.155H25.12ZM28.396 471.103C29.04 471.103 29.5487 470.86 29.922 470.375C30.2953 469.889 30.482 469.213 30.482 468.345C30.482 467.477 30.2953 466.8 29.922 466.315C29.5487 465.829 29.04 465.587 28.396 465.587C27.9667 465.587 27.5933 465.689 27.276 465.895C26.968 466.1 26.7253 466.408 26.548 466.819C26.38 467.229 26.296 467.738 26.296 468.345C26.296 468.951 26.38 469.46 26.548 469.871C26.716 470.281 26.9587 470.589 27.276 470.795C27.5933 471 27.9667 471.103 28.396 471.103ZM33.3095 472.055V464.635H34.4855V472.055H33.3095ZM33.2815 463.473V462.101H34.5135V463.473H33.2815ZM36.9127 474.155V473.119H37.7667C38.028 473.119 38.2194 473.077 38.3407 472.993C38.4714 472.918 38.5694 472.792 38.6347 472.615L38.9007 471.915H38.4947L35.7787 464.635H37.0667L39.2787 470.823L41.3927 464.635H42.6807L39.6707 472.993C39.5307 473.394 39.3207 473.688 39.0407 473.875C38.7607 474.061 38.3734 474.155 37.8787 474.155H36.9127ZM46.2728 472.223C45.5355 472.223 44.9428 471.975 44.4948 471.481C44.0561 470.977 43.8368 470.286 43.8368 469.409V464.635H45.0128V469.087C45.0128 469.805 45.1388 470.337 45.3908 470.683C45.6521 471.019 46.0488 471.187 46.5808 471.187C47.1688 471.187 47.6308 471 47.9668 470.627C48.3028 470.244 48.4708 469.721 48.4708 469.059V464.635H49.6468V472.055H48.5268V470.221L48.7088 470.319C48.5595 470.925 48.2748 471.397 47.8548 471.733C47.4348 472.059 46.9075 472.223 46.2728 472.223ZM54.4548 472.223C53.7921 472.223 53.2275 472.115 52.7608 471.901C52.3035 471.686 51.9441 471.392 51.6828 471.019C51.4308 470.636 51.2861 470.202 51.2488 469.717L52.4808 469.633C52.5555 470.081 52.7468 470.44 53.0548 470.711C53.3628 470.972 53.8295 471.103 54.4548 471.103C54.9588 471.103 55.3601 471.023 55.6588 470.865C55.9668 470.697 56.1208 470.431 56.1208 470.067C56.1208 469.871 56.0741 469.707 55.9808 469.577C55.8875 469.446 55.7055 469.334 55.4348 469.241C55.1641 469.138 54.7628 469.04 54.2308 468.947C53.5215 468.816 52.9615 468.657 52.5508 468.471C52.1495 468.275 51.8601 468.037 51.6828 467.757C51.5148 467.467 51.4308 467.127 51.4308 466.735C51.4308 466.072 51.6735 465.531 52.1588 465.111C52.6441 464.681 53.3348 464.467 54.2308 464.467C54.8375 464.467 55.3461 464.579 55.7568 464.803C56.1768 465.017 56.5035 465.307 56.7368 465.671C56.9795 466.025 57.1381 466.417 57.2128 466.847L55.9808 466.931C55.9248 466.669 55.8221 466.441 55.6728 466.245C55.5235 466.039 55.3275 465.881 55.0848 465.769C54.8421 465.647 54.5528 465.587 54.2168 465.587C53.6848 465.587 53.2928 465.689 53.0408 465.895C52.7888 466.1 52.6628 466.361 52.6628 466.679C52.6628 466.921 52.7188 467.122 52.8308 467.281C52.9521 467.43 53.1435 467.556 53.4048 467.659C53.6661 467.752 54.0161 467.836 54.4548 467.911C55.2108 468.041 55.7988 468.2 56.2188 468.387C56.6388 468.573 56.9328 468.802 57.1008 469.073C57.2688 469.343 57.3528 469.675 57.3528 470.067C57.3528 470.524 57.2221 470.916 56.9608 471.243C56.7088 471.56 56.3635 471.803 55.9248 471.971C55.4955 472.139 55.0055 472.223 54.4548 472.223ZM58.9579 472.055V462.115H60.1339V466.273L59.9939 466.245C60.0872 465.834 60.2459 465.498 60.4699 465.237C60.6939 464.975 60.9692 464.784 61.2959 464.663C61.6226 464.532 61.9819 464.467 62.3739 464.467C62.9059 464.467 63.3539 464.588 63.7179 464.831C64.0912 465.064 64.3712 465.395 64.5579 465.825C64.7539 466.245 64.8519 466.73 64.8519 467.281V472.055H63.6759V467.617C63.6759 466.898 63.5452 466.366 63.2839 466.021C63.0319 465.675 62.6446 465.503 62.1219 465.503C61.5246 465.503 61.0439 465.685 60.6799 466.049C60.3159 466.413 60.1339 466.94 60.1339 467.631V472.055H58.9579ZM74.8207 473.007C74.354 473.203 73.864 473.347 73.3507 473.441C72.8373 473.543 72.2913 473.595 71.7127 473.595C70.6393 473.595 69.72 473.394 68.9547 472.993C68.1987 472.601 67.6153 472.027 67.2047 471.271C66.8033 470.515 66.6027 469.609 66.6027 468.555C66.6027 467.603 66.752 466.735 67.0507 465.951C67.3493 465.167 67.774 464.49 68.3247 463.921C68.8847 463.342 69.5427 462.899 70.2987 462.591C71.0547 462.273 71.89 462.115 72.8047 462.115C73.8593 462.115 74.7787 462.32 75.5627 462.731C76.3467 463.141 76.9533 463.72 77.3827 464.467C77.812 465.213 78.0267 466.095 78.0267 467.113C78.0267 467.859 77.9147 468.517 77.6907 469.087C77.4667 469.656 77.1587 470.104 76.7667 470.431C76.3747 470.748 75.922 470.907 75.4087 470.907C74.9793 470.907 74.6247 470.781 74.3447 470.529C74.074 470.277 73.9247 469.936 73.8967 469.507L74.1067 469.451C73.9947 469.721 73.8173 469.973 73.5747 470.207C73.332 470.44 73.0567 470.627 72.7487 470.767C72.4407 470.897 72.1233 470.963 71.7967 470.963C71.246 470.963 70.7793 470.855 70.3967 470.641C70.0233 470.426 69.7387 470.127 69.5427 469.745C69.3467 469.362 69.2487 468.919 69.2487 468.415C69.2487 467.789 69.37 467.22 69.6127 466.707C69.8647 466.193 70.21 465.787 70.6487 465.489C71.0967 465.181 71.6193 465.027 72.2167 465.027C72.7113 465.027 73.1313 465.139 73.4767 465.363C73.8313 465.577 74.0553 465.862 74.1487 466.217L74.0087 466.357L74.1067 465.055H75.1287L74.9047 467.995C74.8953 468.2 74.8767 468.433 74.8487 468.695C74.83 468.956 74.8207 469.171 74.8207 469.339C74.8207 469.544 74.8767 469.703 74.9887 469.815C75.1007 469.927 75.2687 469.983 75.4927 469.983C75.9687 469.983 76.342 469.731 76.6127 469.227C76.8833 468.723 77.0187 468.032 77.0187 467.155C77.0187 466.287 76.8553 465.549 76.5287 464.943C76.202 464.336 75.7213 463.879 75.0867 463.571C74.4613 463.253 73.6913 463.095 72.7767 463.095C72.0113 463.095 71.3113 463.225 70.6767 463.487C70.042 463.748 69.496 464.121 69.0387 464.607C68.5813 465.083 68.2267 465.652 67.9747 466.315C67.732 466.977 67.6107 467.715 67.6107 468.527C67.6107 469.395 67.7693 470.137 68.0867 470.753C68.4133 471.359 68.8847 471.821 69.5007 472.139C70.1167 472.456 70.8633 472.615 71.7407 472.615C72.2447 472.615 72.7393 472.563 73.2247 472.461C73.7193 472.367 74.172 472.232 74.5827 472.055L74.8207 473.007ZM71.9367 470.039C72.4033 470.039 72.7813 469.927 73.0707 469.703C73.3693 469.469 73.5887 469.175 73.7287 468.821C73.878 468.457 73.9527 468.083 73.9527 467.701C73.9527 467.374 73.8967 467.08 73.7847 466.819C73.682 466.548 73.5093 466.338 73.2667 466.189C73.0333 466.03 72.7207 465.951 72.3287 465.951C71.9087 465.951 71.554 466.063 71.2647 466.287C70.9847 466.501 70.77 466.791 70.6207 467.155C70.4713 467.509 70.3967 467.901 70.3967 468.331C70.3967 468.816 70.5087 469.222 70.7327 469.549C70.966 469.875 71.3673 470.039 71.9367 470.039ZM81.2362 472.055C80.8068 472.055 80.4568 471.943 80.1862 471.719C79.9155 471.495 79.7802 471.14 79.7802 470.655V462.115H80.9562V470.557C80.9562 470.706 80.9935 470.823 81.0682 470.907C81.1522 470.981 81.2688 471.019 81.4182 471.019H82.0622V472.055H81.2362ZM83.4032 472.055V464.635H84.5792V472.055H83.4032ZM83.3752 463.473V462.101H84.6072V463.473H83.3752ZM88.9766 472.055C88.3046 472.055 87.8053 471.901 87.4786 471.593C87.1613 471.285 87.0026 470.804 87.0026 470.151V462.899H88.1786V470.123C88.1786 470.459 88.2533 470.692 88.4026 470.823C88.552 470.953 88.7806 471.019 89.0886 471.019H90.1526V472.055H88.9766ZM85.9106 465.671V464.635H90.1526V465.671H85.9106ZM94.2263 472.223C93.5636 472.223 92.999 472.115 92.5323 471.901C92.075 471.686 91.7156 471.392 91.4543 471.019C91.2023 470.636 91.0576 470.202 91.0203 469.717L92.2523 469.633C92.327 470.081 92.5183 470.44 92.8263 470.711C93.1343 470.972 93.601 471.103 94.2263 471.103C94.7303 471.103 95.1316 471.023 95.4303 470.865C95.7383 470.697 95.8923 470.431 95.8923 470.067C95.8923 469.871 95.8456 469.707 95.7523 469.577C95.659 469.446 95.477 469.334 95.2063 469.241C94.9356 469.138 94.5343 469.04 94.0023 468.947C93.293 468.816 92.733 468.657 92.3223 468.471C91.921 468.275 91.6316 468.037 91.4543 467.757C91.2863 467.467 91.2023 467.127 91.2023 466.735C91.2023 466.072 91.445 465.531 91.9303 465.111C92.4156 464.681 93.1063 464.467 94.0023 464.467C94.609 464.467 95.1176 464.579 95.5283 464.803C95.9483 465.017 96.275 465.307 96.5083 465.671C96.751 466.025 96.9096 466.417 96.9843 466.847L95.7523 466.931C95.6963 466.669 95.5936 466.441 95.4443 466.245C95.295 466.039 95.099 465.881 94.8563 465.769C94.6136 465.647 94.3243 465.587 93.9883 465.587C93.4563 465.587 93.0643 465.689 92.8123 465.895C92.5603 466.1 92.4343 466.361 92.4343 466.679C92.4343 466.921 92.4903 467.122 92.6023 467.281C92.7236 467.43 92.915 467.556 93.1763 467.659C93.4376 467.752 93.7876 467.836 94.2263 467.911C94.9823 468.041 95.5703 468.2 95.9903 468.387C96.4103 468.573 96.7043 468.802 96.8723 469.073C97.0403 469.343 97.1243 469.675 97.1243 470.067C97.1243 470.524 96.9936 470.916 96.7323 471.243C96.4803 471.56 96.135 471.803 95.6963 471.971C95.267 472.139 94.777 472.223 94.2263 472.223ZM101.627 472.223C100.937 472.223 100.335 472.064 99.8214 471.747C99.3174 471.429 98.9254 470.981 98.6454 470.403C98.3654 469.815 98.2254 469.129 98.2254 468.345C98.2254 467.561 98.3654 466.879 98.6454 466.301C98.9254 465.722 99.3174 465.274 99.8214 464.957C100.335 464.63 100.937 464.467 101.627 464.467C102.197 464.467 102.701 464.569 103.139 464.775C103.587 464.971 103.951 465.26 104.231 465.643C104.511 466.025 104.693 466.492 104.777 467.043L103.545 467.127C103.461 466.632 103.247 466.254 102.901 465.993C102.556 465.722 102.131 465.587 101.627 465.587C100.946 465.587 100.414 465.834 100.031 466.329C99.6487 466.814 99.4574 467.486 99.4574 468.345C99.4574 469.203 99.6487 469.88 100.031 470.375C100.414 470.86 100.946 471.103 101.627 471.103C102.131 471.103 102.556 470.963 102.901 470.683C103.247 470.403 103.461 469.983 103.545 469.423L104.777 469.507C104.693 470.057 104.511 470.538 104.231 470.949C103.951 471.35 103.587 471.663 103.139 471.887C102.701 472.111 102.197 472.223 101.627 472.223ZM106.235 472.055V462.115H107.411V466.273L107.271 466.245C107.365 465.834 107.523 465.498 107.747 465.237C107.971 464.975 108.247 464.784 108.573 464.663C108.9 464.532 109.259 464.467 109.651 464.467C110.183 464.467 110.631 464.588 110.995 464.831C111.369 465.064 111.649 465.395 111.835 465.825C112.031 466.245 112.129 466.73 112.129 467.281V472.055H110.953V467.617C110.953 466.898 110.823 466.366 110.561 466.021C110.309 465.675 109.922 465.503 109.399 465.503C108.802 465.503 108.321 465.685 107.957 466.049C107.593 466.413 107.411 466.94 107.411 467.631V472.055H106.235ZM117.104 472.223C116.423 472.223 115.825 472.064 115.312 471.747C114.799 471.429 114.402 470.981 114.122 470.403C113.842 469.815 113.702 469.129 113.702 468.345C113.702 467.551 113.842 466.865 114.122 466.287C114.402 465.708 114.799 465.26 115.312 464.943C115.825 464.625 116.423 464.467 117.104 464.467C117.785 464.467 118.378 464.625 118.882 464.943C119.395 465.26 119.792 465.708 120.072 466.287C120.352 466.865 120.492 467.551 120.492 468.345C120.492 469.129 120.352 469.815 120.072 470.403C119.792 470.981 119.395 471.429 118.882 471.747C118.378 472.064 117.785 472.223 117.104 472.223ZM117.104 471.103C117.785 471.103 118.313 470.86 118.686 470.375C119.069 469.88 119.26 469.203 119.26 468.345C119.26 467.486 119.069 466.814 118.686 466.329C118.313 465.834 117.785 465.587 117.104 465.587C116.423 465.587 115.891 465.834 115.508 466.329C115.125 466.814 114.934 467.486 114.934 468.345C114.934 469.203 115.125 469.88 115.508 470.375C115.891 470.86 116.423 471.103 117.104 471.103ZM124.993 472.223C124.311 472.223 123.714 472.064 123.201 471.747C122.687 471.429 122.291 470.981 122.011 470.403C121.731 469.815 121.591 469.129 121.591 468.345C121.591 467.551 121.731 466.865 122.011 466.287C122.291 465.708 122.687 465.26 123.201 464.943C123.714 464.625 124.311 464.467 124.993 464.467C125.674 464.467 126.267 464.625 126.771 464.943C127.284 465.26 127.681 465.708 127.961 466.287C128.241 466.865 128.381 467.551 128.381 468.345C128.381 469.129 128.241 469.815 127.961 470.403C127.681 470.981 127.284 471.429 126.771 471.747C126.267 472.064 125.674 472.223 124.993 472.223ZM124.993 471.103C125.674 471.103 126.201 470.86 126.575 470.375C126.957 469.88 127.149 469.203 127.149 468.345C127.149 467.486 126.957 466.814 126.575 466.329C126.201 465.834 125.674 465.587 124.993 465.587C124.311 465.587 123.779 465.834 123.397 466.329C123.014 466.814 122.823 467.486 122.823 468.345C122.823 469.203 123.014 469.88 123.397 470.375C123.779 470.86 124.311 471.103 124.993 471.103ZM131.508 472.055C131.078 472.055 130.728 471.943 130.458 471.719C130.187 471.495 130.052 471.14 130.052 470.655V462.115H131.228V470.557C131.228 470.706 131.265 470.823 131.34 470.907C131.424 470.981 131.54 471.019 131.69 471.019H132.334V472.055H131.508ZM133.554 472.055V470.473H135.136V472.055H133.554ZM136.874 472.055V464.635H138.05V472.055H136.874ZM136.846 463.473V462.101H138.078V463.473H136.846ZM140.429 472.055V464.635H141.507L141.549 466.525L141.409 466.399C141.502 465.96 141.665 465.601 141.899 465.321C142.132 465.031 142.412 464.817 142.739 464.677C143.075 464.537 143.434 464.467 143.817 464.467C144.386 464.467 144.853 464.593 145.217 464.845C145.59 465.097 145.865 465.437 146.043 465.867C146.229 466.287 146.323 466.758 146.323 467.281V472.055H145.147V467.617C145.147 467.159 145.091 466.777 144.979 466.469C144.876 466.151 144.708 465.913 144.475 465.755C144.241 465.587 143.938 465.503 143.565 465.503C142.995 465.503 142.524 465.685 142.151 466.049C141.787 466.403 141.605 466.926 141.605 467.617V472.055H140.429Z" fill="#4F4F4F"/>
<path d="M27.36 491.271V484.579H28.452V491.271H27.36ZM24.56 488.471V487.379H31.252V488.471H24.56ZM35.8386 492.279C35.0173 492.279 34.3453 492.078 33.8226 491.677C33.3093 491.266 32.9593 490.753 32.7726 490.137L34.0466 490.039C34.1586 490.375 34.364 490.636 34.6626 490.823C34.9613 491.009 35.3533 491.103 35.8386 491.103C36.6693 491.103 37.304 490.771 37.7426 490.109C38.1906 489.437 38.4193 488.359 38.4286 486.875L38.7226 486.931C38.4893 487.556 38.13 488.041 37.6446 488.387C37.1593 488.723 36.5946 488.891 35.9506 488.891C35.3066 488.891 34.7373 488.746 34.2426 488.457C33.748 488.167 33.356 487.761 33.0666 487.239C32.7866 486.716 32.6466 486.109 32.6466 485.419C32.6466 484.691 32.796 484.065 33.0946 483.543C33.3933 483.011 33.7993 482.605 34.3126 482.325C34.8353 482.035 35.4326 481.891 36.1046 481.891C36.9353 481.891 37.612 482.082 38.1346 482.465C38.6666 482.847 39.0586 483.384 39.3106 484.075C39.5626 484.756 39.6886 485.563 39.6886 486.497C39.6886 487.327 39.6233 488.097 39.4926 488.807C39.362 489.507 39.1473 490.118 38.8486 490.641C38.55 491.154 38.1533 491.555 37.6586 491.845C37.1733 492.134 36.5666 492.279 35.8386 492.279ZM36.0346 487.701C36.492 487.701 36.8933 487.612 37.2386 487.435C37.584 487.257 37.8546 487.001 38.0506 486.665C38.256 486.329 38.3586 485.923 38.3586 485.447C38.3586 484.989 38.2653 484.583 38.0786 484.229C37.9013 483.865 37.6446 483.58 37.3086 483.375C36.9726 483.169 36.5713 483.067 36.1046 483.067C35.6473 483.067 35.2553 483.169 34.9286 483.375C34.602 483.571 34.35 483.846 34.1726 484.201C33.9953 484.555 33.9066 484.961 33.9066 485.419C33.9066 485.885 33.9953 486.291 34.1726 486.637C34.3593 486.973 34.6113 487.234 34.9286 487.421C35.246 487.607 35.6146 487.701 36.0346 487.701ZM43.175 492.055V484.691H41.103V483.655H41.943C42.307 483.655 42.5963 483.608 42.811 483.515C43.035 483.421 43.1936 483.263 43.287 483.039C43.3803 482.815 43.427 482.507 43.427 482.115H44.379V492.055H43.175ZM53.448 492.279C52.6267 492.279 51.9547 492.078 51.432 491.677C50.9187 491.266 50.5687 490.753 50.382 490.137L51.656 490.039C51.768 490.375 51.9733 490.636 52.272 490.823C52.5707 491.009 52.9627 491.103 53.448 491.103C54.2787 491.103 54.9133 490.771 55.352 490.109C55.8 489.437 56.0287 488.359 56.038 486.875L56.332 486.931C56.0987 487.556 55.7393 488.041 55.254 488.387C54.7687 488.723 54.204 488.891 53.56 488.891C52.916 488.891 52.3467 488.746 51.852 488.457C51.3573 488.167 50.9653 487.761 50.676 487.239C50.396 486.716 50.256 486.109 50.256 485.419C50.256 484.691 50.4053 484.065 50.704 483.543C51.0027 483.011 51.4087 482.605 51.922 482.325C52.4447 482.035 53.042 481.891 53.714 481.891C54.5447 481.891 55.2213 482.082 55.744 482.465C56.276 482.847 56.668 483.384 56.92 484.075C57.172 484.756 57.298 485.563 57.298 486.497C57.298 487.327 57.2327 488.097 57.102 488.807C56.9713 489.507 56.7567 490.118 56.458 490.641C56.1593 491.154 55.7627 491.555 55.268 491.845C54.7827 492.134 54.176 492.279 53.448 492.279ZM53.644 487.701C54.1013 487.701 54.5027 487.612 54.848 487.435C55.1933 487.257 55.464 487.001 55.66 486.665C55.8653 486.329 55.968 485.923 55.968 485.447C55.968 484.989 55.8747 484.583 55.688 484.229C55.5107 483.865 55.254 483.58 54.918 483.375C54.582 483.169 54.1807 483.067 53.714 483.067C53.2567 483.067 52.8647 483.169 52.538 483.375C52.2113 483.571 51.9593 483.846 51.782 484.201C51.6047 484.555 51.516 484.961 51.516 485.419C51.516 485.885 51.6047 486.291 51.782 486.637C51.9687 486.973 52.2207 487.234 52.538 487.421C52.8553 487.607 53.224 487.701 53.644 487.701ZM63.6263 492.055V489.899H58.5723V488.807L63.5423 482.115H64.8303V488.723H66.0623V489.899H64.8303V492.055H63.6263ZM60.0283 488.723H63.6263V483.963L60.0283 488.723ZM71.1336 492.279C70.387 492.279 69.7476 492.111 69.2156 491.775C68.693 491.429 68.2916 490.925 68.0116 490.263C67.741 489.6 67.6056 488.797 67.6056 487.855C67.6056 487.033 67.671 486.263 67.8016 485.545C67.9416 484.826 68.161 484.196 68.4596 483.655C68.7676 483.104 69.169 482.675 69.6636 482.367C70.1676 482.049 70.7883 481.891 71.5256 481.891C72.4123 481.891 73.0983 482.11 73.5836 482.549C74.069 482.978 74.4096 483.543 74.6056 484.243L73.3456 484.355C73.2336 483.963 73.0376 483.65 72.7576 483.417C72.487 483.183 72.0763 483.067 71.5256 483.067C70.7043 483.067 70.0556 483.417 69.5796 484.117C69.113 484.817 68.8656 485.876 68.8376 487.295L68.5856 487.239C68.6883 486.903 68.8656 486.595 69.1176 486.315C69.379 486.025 69.6963 485.797 70.0696 485.629C70.4523 485.451 70.8816 485.363 71.3576 485.363C72.011 485.363 72.585 485.503 73.0796 485.783C73.5743 486.063 73.957 486.459 74.2276 486.973C74.5076 487.477 74.6476 488.069 74.6476 488.751C74.6476 489.479 74.4983 490.109 74.1996 490.641C73.901 491.163 73.4856 491.569 72.9536 491.859C72.431 492.139 71.8243 492.279 71.1336 492.279ZM71.1616 491.103C71.815 491.103 72.347 490.897 72.7576 490.487C73.1776 490.067 73.3876 489.488 73.3876 488.751C73.3876 488.293 73.299 487.897 73.1216 487.561C72.9443 487.225 72.697 486.968 72.3796 486.791C72.0623 486.604 71.6936 486.511 71.2736 486.511C70.8256 486.511 70.4243 486.604 70.0696 486.791C69.715 486.968 69.435 487.225 69.2296 487.561C69.0243 487.897 68.9216 488.293 68.9216 488.751C68.9216 489.208 69.0103 489.614 69.1876 489.969C69.3743 490.323 69.6356 490.603 69.9716 490.809C70.3076 491.005 70.7043 491.103 71.1616 491.103ZM77.8605 492.055V484.691H75.7885V483.655H76.6285C76.9925 483.655 77.2818 483.608 77.4965 483.515C77.7205 483.421 77.8792 483.263 77.9725 483.039C78.0658 482.815 78.1125 482.507 78.1125 482.115H79.0645V492.055H77.8605ZM85.0988 492.279C84.2962 492.279 83.6008 492.069 83.0128 491.649C82.4248 491.229 81.9675 490.631 81.6408 489.857C81.3235 489.082 81.1648 488.163 81.1648 487.099C81.1648 486.035 81.3235 485.115 81.6408 484.341C81.9675 483.557 82.4248 482.955 83.0128 482.535C83.6008 482.105 84.2962 481.891 85.0988 481.891C85.9108 481.891 86.6108 482.105 87.1988 482.535C87.7868 482.955 88.2395 483.552 88.5568 484.327C88.8835 485.101 89.0468 486.025 89.0468 487.099C89.0468 488.163 88.8835 489.082 88.5568 489.857C88.2395 490.631 87.7868 491.229 87.1988 491.649C86.6108 492.069 85.9108 492.279 85.0988 492.279ZM85.0988 491.103C85.9575 491.103 86.6202 490.757 87.0868 490.067C87.5535 489.367 87.7868 488.377 87.7868 487.099C87.7868 486.24 87.6795 485.512 87.4648 484.915C87.2595 484.308 86.9562 483.851 86.5548 483.543C86.1628 483.225 85.6775 483.067 85.0988 483.067C84.5295 483.067 84.0442 483.225 83.6428 483.543C83.2508 483.851 82.9475 484.308 82.7328 484.915C82.5275 485.512 82.4248 486.24 82.4248 487.099C82.4248 488.377 82.6582 489.367 83.1248 490.067C83.5915 490.757 84.2495 491.103 85.0988 491.103ZM92.38 492.055V484.691H90.308V483.655H91.148C91.512 483.655 91.8014 483.608 92.016 483.515C92.24 483.421 92.3987 483.263 92.492 483.039C92.5854 482.815 92.632 482.507 92.632 482.115H93.584V492.055H92.38ZM97.1925 492.055V484.691H95.1205V483.655H95.9605C96.3245 483.655 96.6139 483.608 96.8285 483.515C97.0525 483.421 97.2112 483.263 97.3045 483.039C97.3979 482.815 97.4445 482.507 97.4445 482.115H98.3965V492.055H97.1925ZM103.888 492.279C103.179 492.279 102.544 492.167 101.984 491.943C101.433 491.719 100.999 491.387 100.682 490.949C100.374 490.51 100.22 489.969 100.22 489.325C100.22 488.606 100.435 488.013 100.864 487.547C101.293 487.071 101.863 486.749 102.572 486.581L102.6 486.861C102.031 486.702 101.569 486.445 101.214 486.091C100.869 485.727 100.696 485.237 100.696 484.621C100.696 484.098 100.827 483.631 101.088 483.221C101.359 482.81 101.732 482.488 102.208 482.255C102.684 482.012 103.244 481.891 103.888 481.891C104.532 481.891 105.092 482.012 105.568 482.255C106.053 482.488 106.427 482.81 106.688 483.221C106.949 483.631 107.08 484.098 107.08 484.621C107.08 485.237 106.907 485.727 106.562 486.091C106.217 486.445 105.755 486.702 105.176 486.861L105.204 486.581C105.923 486.749 106.492 487.071 106.912 487.547C107.341 488.013 107.556 488.606 107.556 489.325C107.556 489.969 107.397 490.51 107.08 490.949C106.772 491.387 106.343 491.719 105.792 491.943C105.241 492.167 104.607 492.279 103.888 492.279ZM103.888 491.103C104.625 491.103 105.209 490.953 105.638 490.655C106.077 490.347 106.296 489.88 106.296 489.255C106.296 488.676 106.1 488.214 105.708 487.869C105.325 487.514 104.719 487.337 103.888 487.337C103.067 487.337 102.46 487.514 102.068 487.869C101.676 488.214 101.48 488.676 101.48 489.255C101.48 489.88 101.695 490.347 102.124 490.655C102.563 490.953 103.151 491.103 103.888 491.103ZM103.888 486.217C104.504 486.217 104.98 486.086 105.316 485.825C105.652 485.554 105.82 485.153 105.82 484.621C105.82 484.145 105.657 483.767 105.33 483.487C105.003 483.207 104.523 483.067 103.888 483.067C103.263 483.067 102.782 483.207 102.446 483.487C102.119 483.767 101.956 484.145 101.956 484.621C101.956 485.153 102.124 485.554 102.46 485.825C102.796 486.086 103.272 486.217 103.888 486.217ZM112.141 492.279C111.32 492.279 110.648 492.078 110.125 491.677C109.612 491.266 109.262 490.753 109.075 490.137L110.349 490.039C110.461 490.375 110.667 490.636 110.965 490.823C111.264 491.009 111.656 491.103 112.141 491.103C112.972 491.103 113.607 490.771 114.045 490.109C114.493 489.437 114.722 488.359 114.731 486.875L115.025 486.931C114.792 487.556 114.433 488.041 113.947 488.387C113.462 488.723 112.897 488.891 112.253 488.891C111.609 488.891 111.04 488.746 110.545 488.457C110.051 488.167 109.659 487.761 109.369 487.239C109.089 486.716 108.949 486.109 108.949 485.419C108.949 484.691 109.099 484.065 109.397 483.543C109.696 483.011 110.102 482.605 110.615 482.325C111.138 482.035 111.735 481.891 112.407 481.891C113.238 481.891 113.915 482.082 114.437 482.465C114.969 482.847 115.361 483.384 115.613 484.075C115.865 484.756 115.991 485.563 115.991 486.497C115.991 487.327 115.926 488.097 115.795 488.807C115.665 489.507 115.45 490.118 115.151 490.641C114.853 491.154 114.456 491.555 113.961 491.845C113.476 492.134 112.869 492.279 112.141 492.279ZM112.337 487.701C112.795 487.701 113.196 487.612 113.541 487.435C113.887 487.257 114.157 487.001 114.353 486.665C114.559 486.329 114.661 485.923 114.661 485.447C114.661 484.989 114.568 484.583 114.381 484.229C114.204 483.865 113.947 483.58 113.611 483.375C113.275 483.169 112.874 483.067 112.407 483.067C111.95 483.067 111.558 483.169 111.231 483.375C110.905 483.571 110.653 483.846 110.475 484.201C110.298 484.555 110.209 484.961 110.209 485.419C110.209 485.885 110.298 486.291 110.475 486.637C110.662 486.973 110.914 487.234 111.231 487.421C111.549 487.607 111.917 487.701 112.337 487.701ZM119.478 492.055V484.691H117.406V483.655H118.246C118.61 483.655 118.899 483.608 119.114 483.515C119.338 483.421 119.496 483.263 119.59 483.039C119.683 482.815 119.73 482.507 119.73 482.115H120.682V492.055H119.478Z" fill="#4F4F4F"/>
<path d="M27.872 559.503H24.432V557.695H33.408V559.503H29.952V569.055H27.872V559.503ZM34.9481 557.695H36.9961V562.463H36.7401C36.8681 561.748 37.1721 561.215 37.6521 560.863C38.1321 560.5 38.7241 560.319 39.4281 560.319C40.3561 560.319 41.0708 560.617 41.5721 561.215C42.0735 561.801 42.3241 562.585 42.3241 563.567V569.055H40.2761V564.063C40.2761 563.369 40.1535 562.852 39.9081 562.511C39.6735 562.159 39.3108 561.983 38.8201 561.983C38.2441 561.983 37.7961 562.169 37.4761 562.543C37.1561 562.905 36.9961 563.428 36.9961 564.111V569.055H34.9481V557.695ZM48.0824 569.247C47.2397 569.247 46.5037 569.065 45.8744 568.703C45.245 568.329 44.7544 567.807 44.4024 567.135C44.061 566.463 43.8904 565.679 43.8904 564.783C43.8904 563.897 44.061 563.119 44.4024 562.447C44.7544 561.764 45.2397 561.241 45.8584 560.879C46.4877 560.505 47.213 560.319 48.0344 560.319C48.845 560.319 49.5544 560.5 50.1624 560.863C50.781 561.225 51.2557 561.753 51.5864 562.447C51.9277 563.14 52.0984 563.956 52.0984 564.895V565.359H46.0184C46.0504 566.095 46.2477 566.655 46.6104 567.039C46.9837 567.423 47.4797 567.615 48.0984 567.615C48.557 567.615 48.9357 567.513 49.2344 567.311C49.533 567.108 49.7464 566.815 49.8744 566.431L51.9704 566.559C51.7464 567.391 51.2877 568.047 50.5944 568.527C49.901 569.007 49.0637 569.247 48.0824 569.247ZM49.9704 563.983C49.9277 563.311 49.7357 562.804 49.3944 562.463C49.053 562.111 48.5997 561.935 48.0344 561.935C47.4797 561.935 47.021 562.111 46.6584 562.463C46.3064 562.815 46.093 563.321 46.0184 563.983H49.9704ZM57.8113 557.695H59.8913V568.415L58.7553 567.247H65.2833V569.055H57.8113V557.695ZM67.1863 557.695H69.2663V569.055H67.1863V557.695ZM74.4189 559.503H70.9789V557.695H79.9549V559.503H76.4989V569.055H74.4189V559.503ZM89.7403 569.311C88.8016 569.311 87.9909 569.151 87.3083 568.831C86.6256 568.5 86.0869 568.036 85.6923 567.439C85.2976 566.841 85.0683 566.148 85.0043 565.359L87.1163 565.231C87.1909 565.732 87.3349 566.153 87.5483 566.495C87.7616 566.825 88.0496 567.081 88.4123 567.263C88.7856 567.433 89.2389 567.519 89.7723 567.519C90.4443 567.519 90.9616 567.396 91.3243 567.151C91.6976 566.895 91.8843 566.527 91.8843 566.047C91.8843 565.737 91.8096 565.476 91.6603 565.263C91.5109 565.039 91.2389 564.836 90.8443 564.655C90.4496 564.463 89.8736 564.276 89.1163 564.095C88.1456 563.871 87.3829 563.625 86.8283 563.359C86.2736 563.081 85.8683 562.74 85.6123 562.335C85.3669 561.929 85.2443 561.417 85.2443 560.799C85.2443 560.137 85.4043 559.556 85.7243 559.055C86.0549 558.543 86.5296 558.148 87.1483 557.871C87.7669 557.583 88.4976 557.439 89.3403 557.439C90.2149 557.439 90.9723 557.599 91.6123 557.919C92.2523 558.239 92.7536 558.681 93.1163 559.247C93.4789 559.812 93.7029 560.468 93.7883 561.215L91.6923 561.311C91.6496 560.895 91.5269 560.532 91.3243 560.223C91.1216 559.903 90.8496 559.657 90.5083 559.487C90.1776 559.316 89.7776 559.231 89.3083 559.231C88.7109 559.231 88.2363 559.369 87.8843 559.647C87.5323 559.913 87.3563 560.271 87.3563 560.719C87.3563 561.028 87.4309 561.284 87.5803 561.487C87.7296 561.689 87.9803 561.865 88.3323 562.015C88.6949 562.153 89.2229 562.303 89.9163 562.463C90.9189 562.676 91.7189 562.948 92.3163 563.279C92.9136 563.599 93.3403 563.977 93.5963 564.415C93.8629 564.841 93.9963 565.348 93.9963 565.935C93.9963 566.617 93.8203 567.215 93.4683 567.727C93.1163 568.228 92.6149 568.617 91.9643 568.895C91.3243 569.172 90.5829 569.311 89.7403 569.311ZM99.7078 569.247C98.8651 569.247 98.1291 569.065 97.4998 568.703C96.8704 568.329 96.3798 567.807 96.0278 567.135C95.6758 566.452 95.4998 565.668 95.4998 564.783C95.4998 563.897 95.6758 563.119 96.0278 562.447C96.3798 561.764 96.8704 561.241 97.4998 560.879C98.1291 560.505 98.8651 560.319 99.7078 560.319C100.433 560.319 101.078 560.447 101.644 560.703C102.22 560.959 102.684 561.332 103.036 561.823C103.388 562.303 103.606 562.873 103.692 563.535L101.58 563.647C101.494 563.113 101.286 562.703 100.956 562.415C100.625 562.127 100.209 561.983 99.7078 561.983C99.0464 561.983 98.5344 562.228 98.1718 562.719C97.8091 563.209 97.6278 563.897 97.6278 564.783C97.6278 565.668 97.8091 566.356 98.1718 566.847C98.5344 567.337 99.0464 567.583 99.7078 567.583C100.22 567.583 100.641 567.439 100.972 567.151C101.302 566.852 101.505 566.404 101.58 565.807L103.692 565.903C103.617 566.585 103.404 567.177 103.052 567.679C102.7 568.18 102.236 568.569 101.66 568.847C101.084 569.113 100.433 569.247 99.7078 569.247ZM105.089 557.695H107.137V562.463H106.881C107.009 561.748 107.313 561.215 107.793 560.863C108.273 560.5 108.865 560.319 109.569 560.319C110.497 560.319 111.211 560.617 111.713 561.215C112.214 561.801 112.465 562.585 112.465 563.567V569.055H110.417V564.063C110.417 563.369 110.294 562.852 110.049 562.511C109.814 562.159 109.451 561.983 108.961 561.983C108.385 561.983 107.937 562.169 107.617 562.543C107.297 562.905 107.137 563.428 107.137 564.111V569.055H105.089V557.695ZM118.239 569.247C117.396 569.247 116.66 569.065 116.031 568.703C115.402 568.329 114.911 567.807 114.559 567.135C114.207 566.463 114.031 565.679 114.031 564.783C114.031 563.887 114.207 563.103 114.559 562.431C114.911 561.759 115.402 561.241 116.031 560.879C116.66 560.505 117.396 560.319 118.239 560.319C119.071 560.319 119.802 560.505 120.431 560.879C121.071 561.241 121.562 561.759 121.903 562.431C122.255 563.103 122.431 563.887 122.431 564.783C122.431 565.679 122.255 566.463 121.903 567.135C121.562 567.807 121.071 568.329 120.431 568.703C119.802 569.065 119.071 569.247 118.239 569.247ZM118.239 567.583C118.9 567.583 119.412 567.337 119.775 566.847C120.138 566.356 120.319 565.668 120.319 564.783C120.319 563.908 120.138 563.225 119.775 562.735C119.412 562.233 118.9 561.983 118.239 561.983C117.578 561.983 117.066 562.228 116.703 562.719C116.34 563.209 116.159 563.897 116.159 564.783C116.159 565.668 116.34 566.356 116.703 566.847C117.066 567.337 117.578 567.583 118.239 567.583ZM127.848 569.247C127.006 569.247 126.27 569.065 125.64 568.703C125.011 568.329 124.52 567.807 124.168 567.135C123.816 566.463 123.64 565.679 123.64 564.783C123.64 563.887 123.816 563.103 124.168 562.431C124.52 561.759 125.011 561.241 125.64 560.879C126.27 560.505 127.006 560.319 127.848 560.319C128.68 560.319 129.411 560.505 130.04 560.879C130.68 561.241 131.171 561.759 131.512 562.431C131.864 563.103 132.04 563.887 132.04 564.783C132.04 565.679 131.864 566.463 131.512 567.135C131.171 567.807 130.68 568.329 130.04 568.703C129.411 569.065 128.68 569.247 127.848 569.247ZM127.848 567.583C128.51 567.583 129.022 567.337 129.384 566.847C129.747 566.356 129.928 565.668 129.928 564.783C129.928 563.908 129.747 563.225 129.384 562.735C129.022 562.233 128.51 561.983 127.848 561.983C127.187 561.983 126.675 562.228 126.312 562.719C125.95 563.209 125.768 563.897 125.768 564.783C125.768 565.668 125.95 566.356 126.312 566.847C126.675 567.337 127.187 567.583 127.848 567.583ZM135.809 569.055C135.158 569.055 134.652 568.895 134.289 568.575C133.926 568.244 133.745 567.732 133.745 567.039L133.761 557.695H135.809V566.831C135.809 567.044 135.862 567.204 135.969 567.311C136.076 567.417 136.236 567.471 136.449 567.471H137.073V569.055H135.809Z" fill="#09090B"/>
<path d="M176.305 557.695H177.681V568.415L176.993 567.711H183.361V569.055H176.305V557.695ZM187.69 569.247C186.9 569.247 186.212 569.065 185.626 568.703C185.039 568.34 184.586 567.828 184.266 567.167C183.956 566.495 183.802 565.711 183.802 564.815C183.802 563.929 183.956 563.151 184.266 562.479C184.586 561.807 185.034 561.289 185.61 560.927C186.186 560.564 186.858 560.383 187.626 560.383C188.362 560.383 189.012 560.559 189.578 560.911C190.143 561.252 190.58 561.759 190.89 562.431C191.21 563.103 191.37 563.903 191.37 564.831V565.231H185.21C185.252 566.127 185.487 566.809 185.914 567.279C186.351 567.737 186.943 567.967 187.69 567.967C188.234 567.967 188.682 567.844 189.034 567.599C189.396 567.343 189.652 566.991 189.802 566.543L191.242 566.655C191.018 567.433 190.586 568.063 189.946 568.543C189.316 569.012 188.564 569.247 187.69 569.247ZM189.898 564.047C189.834 563.257 189.599 562.665 189.194 562.271C188.799 561.865 188.276 561.663 187.626 561.663C186.964 561.663 186.42 561.865 185.994 562.271C185.578 562.676 185.316 563.268 185.21 564.047H189.898ZM195.304 569.247C194.418 569.247 193.72 569.044 193.208 568.639C192.696 568.233 192.44 567.668 192.44 566.943C192.44 566.217 192.653 565.647 193.08 565.231C193.506 564.815 194.184 564.521 195.112 564.351L198.12 563.791C198.12 563.076 197.949 562.543 197.608 562.191C197.277 561.839 196.776 561.663 196.104 561.663C195.528 561.663 195.064 561.791 194.712 562.047C194.37 562.303 194.136 562.681 194.008 563.183L192.584 563.071C192.744 562.249 193.133 561.599 193.752 561.119C194.381 560.628 195.165 560.383 196.104 560.383C197.181 560.383 198.008 560.687 198.584 561.295C199.17 561.903 199.464 562.751 199.464 563.839V567.343C199.464 567.535 199.496 567.673 199.56 567.759C199.634 567.833 199.752 567.871 199.912 567.871H200.248V569.055C200.184 569.065 200.109 569.071 200.024 569.071C199.938 569.081 199.842 569.087 199.736 569.087C199.149 569.087 198.733 568.948 198.488 568.671C198.242 568.393 198.12 567.935 198.12 567.295L198.28 567.327C198.173 567.871 197.832 568.329 197.256 568.703C196.68 569.065 196.029 569.247 195.304 569.247ZM195.432 568.063C195.986 568.063 196.466 567.956 196.872 567.743C197.277 567.519 197.586 567.22 197.8 566.847C198.013 566.463 198.12 566.036 198.12 565.567V564.959L195.368 565.471C194.813 565.567 194.418 565.727 194.184 565.951C193.96 566.164 193.848 566.452 193.848 566.815C193.848 567.209 193.986 567.519 194.264 567.743C194.541 567.956 194.93 568.063 195.432 568.063ZM201.575 560.575H202.759L202.823 562.719L202.695 562.671C202.801 561.956 203.031 561.428 203.383 561.087C203.735 560.745 204.215 560.575 204.823 560.575H205.655V561.855H204.839C204.412 561.855 204.055 561.935 203.767 562.095C203.489 562.244 203.276 562.473 203.127 562.783C202.988 563.092 202.919 563.476 202.919 563.935V569.055H201.575V560.575ZM206.775 560.575H208.007L208.055 562.735L207.895 562.591C208.044 561.865 208.364 561.316 208.855 560.943C209.356 560.569 209.954 560.383 210.647 560.383C211.575 560.383 212.284 560.681 212.775 561.279C213.266 561.876 213.511 562.649 213.511 563.599V569.055H212.167V563.983C212.167 563.183 212.023 562.58 211.735 562.175C211.447 561.769 210.988 561.567 210.359 561.567C209.687 561.567 209.143 561.78 208.727 562.207C208.322 562.623 208.119 563.215 208.119 563.983V569.055H206.775V560.575Z" fill="#09090B"/>
<g clip-path="url(#clip2_12018_4056)">
<path d="M221.833 560.555L222.671 561.916L224.239 561.749L223.725 563.277L224.833 564.416L223.347 564.944L223.158 566.555L221.833 565.694L220.482 566.555L220.32 564.944L218.833 564.416L219.941 563.277L219.428 561.749L220.995 561.916L221.833 560.555Z" fill="#00A3FF"/>
</g>
<path d="M230.305 557.695H231.681V569.055H230.305V557.695ZM233.751 560.575H234.983L235.031 562.735L234.871 562.591C235.021 561.865 235.341 561.316 235.831 560.943C236.333 560.569 236.93 560.383 237.623 560.383C238.551 560.383 239.261 560.681 239.751 561.279C240.242 561.876 240.487 562.649 240.487 563.599V569.055H239.143V563.983C239.143 563.183 238.999 562.58 238.711 562.175C238.423 561.769 237.965 561.567 237.335 561.567C236.663 561.567 236.119 561.78 235.703 562.207C235.298 562.623 235.095 563.215 235.095 563.983V569.055H233.751V560.575ZM242.296 560.575H243.528L243.576 562.735L243.416 562.591C243.565 561.865 243.885 561.316 244.376 560.943C244.877 560.569 245.474 560.383 246.168 560.383C247.096 560.383 247.805 560.681 248.296 561.279C248.786 561.876 249.032 562.649 249.032 563.599V569.055H247.688V563.983C247.688 563.183 247.544 562.58 247.256 562.175C246.968 561.769 246.509 561.567 245.88 561.567C245.208 561.567 244.664 561.78 244.248 562.207C243.842 562.623 243.64 563.215 243.64 563.983V569.055H242.296V560.575ZM254.278 569.247C253.5 569.247 252.817 569.065 252.23 568.703C251.644 568.34 251.19 567.828 250.87 567.167C250.55 566.495 250.39 565.711 250.39 564.815C250.39 563.919 250.55 563.14 250.87 562.479C251.19 561.807 251.644 561.289 252.23 560.927C252.817 560.564 253.5 560.383 254.278 560.383C255.046 560.383 255.724 560.564 256.31 560.927C256.897 561.289 257.35 561.807 257.67 562.479C257.99 563.14 258.15 563.919 258.15 564.815C258.15 565.711 257.99 566.495 257.67 567.167C257.35 567.828 256.897 568.34 256.31 568.703C255.724 569.065 255.046 569.247 254.278 569.247ZM254.278 567.967C255.057 567.967 255.66 567.689 256.086 567.135C256.524 566.569 256.742 565.796 256.742 564.815C256.742 563.833 256.524 563.065 256.086 562.511C255.66 561.945 255.057 561.663 254.278 561.663C253.5 561.663 252.892 561.94 252.454 562.495C252.017 563.049 251.798 563.823 251.798 564.815C251.798 565.807 252.017 566.58 252.454 567.135C252.892 567.689 253.5 567.967 254.278 567.967ZM258.41 560.575H259.882L262.346 567.679L264.81 560.575H266.282L263.194 569.055H261.498L258.41 560.575ZM269.499 569.247C268.614 569.247 267.915 569.044 267.403 568.639C266.891 568.233 266.635 567.668 266.635 566.943C266.635 566.217 266.849 565.647 267.275 565.231C267.702 564.815 268.379 564.521 269.307 564.351L272.315 563.791C272.315 563.076 272.145 562.543 271.803 562.191C271.473 561.839 270.971 561.663 270.299 561.663C269.723 561.663 269.259 561.791 268.907 562.047C268.566 562.303 268.331 562.681 268.203 563.183L266.779 563.071C266.939 562.249 267.329 561.599 267.947 561.119C268.577 560.628 269.361 560.383 270.299 560.383C271.377 560.383 272.203 560.687 272.779 561.295C273.366 561.903 273.659 562.751 273.659 563.839V567.343C273.659 567.535 273.691 567.673 273.755 567.759C273.83 567.833 273.947 567.871 274.107 567.871H274.443V569.055C274.379 569.065 274.305 569.071 274.219 569.071C274.134 569.081 274.038 569.087 273.931 569.087C273.345 569.087 272.929 568.948 272.683 568.671C272.438 568.393 272.315 567.935 272.315 567.295L272.475 567.327C272.369 567.871 272.027 568.329 271.451 568.703C270.875 569.065 270.225 569.247 269.499 569.247ZM269.627 568.063C270.182 568.063 270.662 567.956 271.067 567.743C271.473 567.519 271.782 567.22 271.995 566.847C272.209 566.463 272.315 566.036 272.315 565.567V564.959L269.563 565.471C269.009 565.567 268.614 565.727 268.379 565.951C268.155 566.164 268.043 566.452 268.043 566.815C268.043 567.209 268.182 567.519 268.459 567.743C268.737 567.956 269.126 568.063 269.627 568.063ZM278.155 569.055C277.387 569.055 276.817 568.879 276.443 568.527C276.081 568.175 275.899 567.625 275.899 566.879V558.591H277.243V566.847C277.243 567.22 277.323 567.487 277.483 567.647C277.654 567.796 277.921 567.871 278.283 567.871H279.499V569.055H278.155ZM274.651 560.575H279.499V561.759H274.651V560.575ZM284.05 569.247C283.26 569.247 282.572 569.065 281.986 568.703C281.399 568.34 280.946 567.828 280.626 567.167C280.316 566.495 280.162 565.711 280.162 564.815C280.162 563.929 280.316 563.151 280.626 562.479C280.946 561.807 281.394 561.289 281.97 560.927C282.546 560.564 283.218 560.383 283.986 560.383C284.722 560.383 285.372 560.559 285.938 560.911C286.503 561.252 286.94 561.759 287.25 562.431C287.57 563.103 287.73 563.903 287.73 564.831V565.231H281.57C281.612 566.127 281.847 566.809 282.274 567.279C282.711 567.737 283.303 567.967 284.05 567.967C284.594 567.967 285.042 567.844 285.394 567.599C285.756 567.343 286.012 566.991 286.162 566.543L287.602 566.655C287.378 567.433 286.946 568.063 286.306 568.543C285.676 569.012 284.924 569.247 284.05 569.247ZM286.258 564.047C286.194 563.257 285.959 562.665 285.554 562.271C285.159 561.865 284.636 561.663 283.986 561.663C283.324 561.663 282.78 561.865 282.354 562.271C281.938 562.676 281.676 563.268 281.57 564.047H286.258Z" fill="#09090B"/>
<g clip-path="url(#clip3_12018_4056)">
<path d="M295.917 560.555L296.778 561.916L298.389 561.749L297.861 563.277L299 564.416L297.472 564.944L297.278 566.555L295.917 565.694L294.528 566.555L294.361 564.944L292.833 564.416L293.972 563.277L293.444 561.749L295.055 561.916L295.917 560.555Z" fill="#00A3FF"/>
</g>
<path d="M306.936 559.039H303.4V557.695H311.848V559.039H308.312V569.055H306.936V559.039ZM312.778 560.575H313.962L314.026 562.719L313.898 562.671C314.004 561.956 314.234 561.428 314.586 561.087C314.938 560.745 315.418 560.575 316.026 560.575H316.858V561.855H316.042C315.615 561.855 315.258 561.935 314.97 562.095C314.692 562.244 314.479 562.473 314.33 562.783C314.191 563.092 314.122 563.476 314.122 563.935V569.055H312.778V560.575ZM320.299 569.247C319.413 569.247 318.714 569.044 318.202 568.639C317.69 568.233 317.434 567.668 317.434 566.943C317.434 566.217 317.648 565.647 318.074 565.231C318.501 564.815 319.179 564.521 320.107 564.351L323.115 563.791C323.115 563.076 322.944 562.543 322.602 562.191C322.272 561.839 321.771 561.663 321.099 561.663C320.523 561.663 320.059 561.791 319.707 562.047C319.365 562.303 319.13 562.681 319.003 563.183L317.578 563.071C317.738 562.249 318.128 561.599 318.747 561.119C319.376 560.628 320.16 560.383 321.099 560.383C322.176 560.383 323.003 560.687 323.579 561.295C324.165 561.903 324.459 562.751 324.459 563.839V567.343C324.459 567.535 324.491 567.673 324.555 567.759C324.629 567.833 324.747 567.871 324.906 567.871H325.243V569.055C325.179 569.065 325.104 569.071 325.019 569.071C324.933 569.081 324.837 569.087 324.731 569.087C324.144 569.087 323.728 568.948 323.483 568.671C323.237 568.393 323.115 567.935 323.115 567.295L323.275 567.327C323.168 567.871 322.827 568.329 322.251 568.703C321.674 569.065 321.024 569.247 320.299 569.247ZM320.427 568.063C320.981 568.063 321.461 567.956 321.866 567.743C322.272 567.519 322.581 567.22 322.795 566.847C323.008 566.463 323.115 566.036 323.115 565.567V564.959L320.362 565.471C319.808 565.567 319.413 565.727 319.178 565.951C318.954 566.164 318.842 566.452 318.842 566.815C318.842 567.209 318.981 567.519 319.259 567.743C319.536 567.956 319.925 568.063 320.427 568.063ZM326.569 560.575H327.801L327.849 562.735L327.689 562.591C327.839 561.865 328.159 561.316 328.649 560.943C329.151 560.569 329.748 560.383 330.441 560.383C331.369 560.383 332.079 560.681 332.569 561.279C333.06 561.876 333.305 562.649 333.305 563.599V569.055H331.961V563.983C331.961 563.183 331.817 562.58 331.529 562.175C331.241 561.769 330.783 561.567 330.153 561.567C329.481 561.567 328.937 561.78 328.521 562.207C328.116 562.623 327.913 563.215 327.913 563.983V569.055H326.569V560.575ZM338.328 569.247C337.592 569.247 336.952 569.129 336.408 568.895C335.875 568.649 335.459 568.313 335.16 567.887C334.872 567.449 334.707 566.948 334.664 566.383L336.072 566.287C336.157 566.82 336.381 567.236 336.744 567.535C337.107 567.823 337.635 567.967 338.328 567.967C338.925 567.967 339.389 567.871 339.72 567.679C340.061 567.487 340.232 567.188 340.232 566.783C340.232 566.548 340.173 566.361 340.056 566.223C339.949 566.073 339.741 565.945 339.432 565.839C339.133 565.721 338.68 565.609 338.072 565.503C337.272 565.364 336.637 565.183 336.168 564.959C335.699 564.735 335.363 564.463 335.16 564.143C334.968 563.823 334.872 563.433 334.872 562.975C334.872 562.207 335.155 561.583 335.72 561.103C336.285 560.623 337.069 560.383 338.072 560.383C339.053 560.383 339.832 560.639 340.408 561.151C340.984 561.663 341.341 562.313 341.48 563.103L340.072 563.199C339.976 562.729 339.752 562.356 339.4 562.079C339.059 561.801 338.611 561.663 338.056 561.663C337.469 561.663 337.027 561.78 336.728 562.015C336.429 562.239 336.28 562.537 336.28 562.911C336.28 563.188 336.344 563.417 336.472 563.599C336.611 563.769 336.824 563.913 337.112 564.031C337.4 564.137 337.805 564.233 338.328 564.319C339.192 564.468 339.859 564.649 340.328 564.863C340.808 565.065 341.144 565.321 341.336 565.631C341.539 565.929 341.64 566.313 341.64 566.783C341.64 567.551 341.325 568.153 340.696 568.591C340.077 569.028 339.288 569.247 338.328 569.247ZM343.756 559.807C343.756 559.156 343.942 558.644 344.316 558.271C344.689 557.887 345.249 557.695 345.996 557.695H347.34V558.879H346.092C345.761 558.879 345.51 558.969 345.34 559.151C345.18 559.321 345.1 559.572 345.1 559.903V569.055H343.756V559.807ZM342.604 560.575H347.228V561.759H342.604V560.575ZM351.734 569.247C350.956 569.247 350.273 569.065 349.686 568.703C349.1 568.34 348.646 567.828 348.326 567.167C348.006 566.495 347.846 565.711 347.846 564.815C347.846 563.919 348.006 563.14 348.326 562.479C348.646 561.807 349.1 561.289 349.686 560.927C350.273 560.564 350.956 560.383 351.734 560.383C352.502 560.383 353.18 560.564 353.766 560.927C354.353 561.289 354.806 561.807 355.126 562.479C355.446 563.14 355.606 563.919 355.606 564.815C355.606 565.711 355.446 566.495 355.126 567.167C354.806 567.828 354.353 568.34 353.766 568.703C353.18 569.065 352.502 569.247 351.734 569.247ZM351.734 567.967C352.513 567.967 353.116 567.689 353.542 567.135C353.98 566.569 354.198 565.796 354.198 564.815C354.198 563.833 353.98 563.065 353.542 562.511C353.116 561.945 352.513 561.663 351.734 561.663C350.956 561.663 350.348 561.94 349.91 562.495C349.473 563.049 349.254 563.823 349.254 564.815C349.254 565.807 349.473 566.58 349.91 567.135C350.348 567.689 350.956 567.967 351.734 567.967ZM357.122 560.575H358.306L358.37 562.719L358.242 562.671C358.349 561.956 358.578 561.428 358.93 561.087C359.282 560.745 359.762 560.575 360.37 560.575H361.202V561.855H360.386C359.959 561.855 359.602 561.935 359.314 562.095C359.037 562.244 358.823 562.473 358.674 562.783C358.535 563.092 358.466 563.476 358.466 563.935V569.055H357.122V560.575ZM362.322 560.575H363.554L363.602 562.719L363.41 562.655C363.506 562.196 363.672 561.796 363.906 561.455C364.152 561.113 364.45 560.852 364.802 560.671C365.154 560.479 365.544 560.383 365.97 560.383C366.706 560.383 367.304 560.585 367.762 560.991C368.232 561.385 368.525 561.951 368.642 562.687L368.386 562.671C368.514 561.945 368.802 561.385 369.25 560.991C369.698 560.585 370.28 560.383 370.995 560.383C371.592 560.383 372.098 560.511 372.514 560.767C372.941 561.012 373.261 561.375 373.474 561.855C373.688 562.335 373.795 562.916 373.795 563.599V569.055H372.451V563.887C372.451 563.119 372.301 562.543 372.003 562.159C371.704 561.764 371.261 561.567 370.675 561.567C370.28 561.567 369.933 561.663 369.634 561.855C369.347 562.047 369.123 562.324 368.963 562.687C368.802 563.049 368.722 563.481 368.722 563.983V569.055H367.378V563.983C367.378 563.204 367.24 562.607 366.962 562.191C366.685 561.775 366.242 561.567 365.634 561.567C365.24 561.567 364.893 561.663 364.594 561.855C364.296 562.047 364.066 562.329 363.906 562.703C363.746 563.065 363.666 563.492 363.666 563.983V569.055H362.322V560.575Z" fill="#09090B"/>
</g>
<defs>
<clipPath id="clip0_12018_4056">
<rect width="400" height="590.114" fill="white" transform="translate(0 0.941406)"/>
</clipPath>
<clipPath id="clip1_12018_4056">
<rect width="400" height="360" fill="white" transform="translate(0 0.941406)"/>
</clipPath>
<clipPath id="clip2_12018_4056">
<rect width="6" height="6" fill="white" transform="translate(218.833 560.555)"/>
</clipPath>
<clipPath id="clip3_12018_4056">
<rect width="6.16667" height="6" fill="white" transform="translate(292.833 560.555)"/>
</clipPath>
</defs>
</svg>
