<svg width="60" height="36" viewBox="0 0 60 36" fill="none" xmlns="http://www.w3.org/2000/svg">
<path d="M55.1259 31.3968C55.2202 22.9142 55.0525 14.4209 55.1259 5.9382C55.0315 5.14641 54.4654 4.62383 53.6685 4.59743C37.4019 4.73996 21.13 4.42852 4.86862 4.60271C3.9722 4.61327 2.29993 4.45491 1.52932 4.6291C1.05752 4.73468 0.459907 5.45784 0.433695 5.95403L0.417969 34.5271C0.507087 35.3294 1.19382 35.9839 2.00112 35.9998H53.6633C55.6973 35.7517 55.1049 32.9065 55.1206 31.3968H55.1259ZM49.3699 29.1218C48.117 29.6602 47.5666 30.8056 47.3936 32.1095L8.24462 32.1728C8.00348 30.3939 6.78728 28.7787 4.86862 28.8473V11.7446C6.69816 11.7446 8.10832 10.235 8.17647 8.42969H47.5142C47.3884 10.2666 48.9925 11.8397 50.8168 11.7394V28.3986C50.8273 28.9581 49.9466 28.8684 49.3752 29.1165L49.3699 29.1218Z" fill="#33C036"/>
<path d="M59.5716 1.47273L59.5558 30.051C59.1103 32.1466 56.6726 31.2018 55.1262 31.4023C55.2205 22.9197 55.0528 14.4264 55.1262 5.9437C55.0318 5.15191 54.4656 4.62933 53.6688 4.60293C37.4022 4.74545 21.1303 4.43402 4.86888 4.60821C5.07857 3.01935 4.10352 0.395894 6.33146 0H57.9884C58.801 0.0105572 59.4824 0.665103 59.5716 1.46745V1.47273Z" fill="#199B19"/>
<path d="M11.6884 18.1574C14.1104 17.6454 15.4419 20.7862 13.366 22.1428C11.7881 23.1774 9.796 21.7046 10.1053 19.8835C10.2259 19.1498 10.9598 18.3158 11.6884 18.1574Z" fill="#EEF0EF"/>
<path d="M42.9111 18.1574C45.333 17.6454 46.6645 20.7862 44.5886 22.1428C43.0107 23.1774 41.0187 21.7046 41.328 19.8835C41.4485 19.1498 42.1824 18.3158 42.9111 18.1574Z" fill="#EEF0EF"/>
<path d="M50.8117 11.7441C48.9874 11.8444 47.3833 10.2661 47.5091 8.42383H8.17663C8.10848 10.2344 6.70356 11.7441 4.87402 11.7441V28.8414C6.79268 28.7675 8.00888 30.3881 8.24478 32.1669L47.3938 32.1036C47.572 30.7998 48.1172 29.6543 49.3701 29.1159C49.9415 28.8678 50.8222 28.9576 50.8169 28.398V11.7388L50.8117 11.7441ZM13.3717 22.1376C11.7938 23.1722 9.80172 21.6995 10.111 19.8784C10.2368 19.1447 10.9655 18.3106 11.6942 18.1523C14.1108 17.6403 15.4424 20.781 13.3717 22.1376ZM44.5892 22.1376C43.0113 23.1722 41.0244 21.6995 41.3285 19.8784C41.4491 19.1447 42.183 18.3106 42.9117 18.1523C45.3336 17.6403 46.6651 20.781 44.5892 22.1376Z" fill="#005000"/>
<g filter="url(#filter0_d_2382_66793)">
<path d="M22.3619 17.9805H19.793V28.7436H22.3619V17.9805Z" fill="white"/>
<path d="M27.5768 15.8262H25.0078V26.5934H27.5768V15.8262Z" fill="white"/>
<path d="M32.7926 13.6758H30.2236V24.4081H32.7926V13.6758Z" fill="white"/>
<path d="M32.7926 24.4434H30.2236V26.5938H32.7926V24.4434Z" fill="#F9E100"/>
<path d="M24.9694 26.5898H22.4004V28.7403H24.9694V26.5898Z" fill="#00A878"/>
<path d="M30.1852 13.6758H27.6162V15.8263H30.1852V13.6758Z" fill="#FF58EB"/>
<path d="M27.5768 11.5254H25.0078V13.6759H27.5768V11.5254Z" fill="#FF7000"/>
<path d="M35.4 13.6758H32.8311V15.8263H35.4V13.6758Z" fill="#369DF0"/>
</g>
<defs>
<filter id="filter0_d_2382_66793" x="16.793" y="10.5254" width="19.6074" height="21.2188" filterUnits="userSpaceOnUse" color-interpolation-filters="sRGB">
<feFlood flood-opacity="0" result="BackgroundImageFix"/>
<feColorMatrix in="SourceAlpha" type="matrix" values="0 0 0 0 0 0 0 0 0 0 0 0 0 0 0 0 0 0 127 0" result="hardAlpha"/>
<feOffset dx="-1" dy="1"/>
<feGaussianBlur stdDeviation="1"/>
<feComposite in2="hardAlpha" operator="out"/>
<feColorMatrix type="matrix" values="0 0 0 0 0 0 0 0 0 0.186312 0 0 0 0 0 0 0 0 1 0"/>
<feBlend mode="normal" in2="BackgroundImageFix" result="effect1_dropShadow_2382_66793"/>
<feBlend mode="normal" in="SourceGraphic" in2="effect1_dropShadow_2382_66793" result="shape"/>
</filter>
</defs>
</svg>
