<svg width="20" height="24" viewBox="0 0 20 24" fill="none" xmlns="http://www.w3.org/2000/svg">
<path d="M10.0004 0L10.1408 0.00839996C10.4087 0.0399886 10.6581 0.160895 10.8488 0.351613C11.0395 0.542332 11.1604 0.79174 11.192 1.0596L11.2004 1.2V6L11.2064 6.18C11.2493 6.75141 11.4953 7.28859 11.8998 7.69444C12.3043 8.10028 12.8407 8.348 13.412 8.3928L13.6004 8.4H18.4004L18.5408 8.4084C18.8087 8.43999 19.0581 8.5609 19.2488 8.75161C19.4395 8.94233 19.5604 9.19174 19.592 9.4596L19.6004 9.6V20.4C19.6004 21.3183 19.2496 22.2018 18.6197 22.8699C17.9897 23.538 17.1283 23.9401 16.2116 23.994L16.0004 24H4.00039C3.08214 24.0001 2.19857 23.6492 1.53048 23.0193C0.862382 22.3893 0.460262 21.5279 0.406391 20.6112L0.400391 20.4V3.6C0.400339 2.68175 0.751181 1.79818 1.38113 1.13009C2.01108 0.461992 2.87252 0.059871 3.78919 0.00600014L4.00039 0H10.0004Z" fill="#00CC92"/>
<path d="M18.4008 6.00042H13.6008L13.5996 1.19922L18.4008 6.00042Z" fill="#00CC92"/>
</svg>
