<svg width="108" height="92" viewBox="0 0 108 92" fill="none" xmlns="http://www.w3.org/2000/svg">
<rect x="-12" y="-28" width="120" height="120" rx="60" fill="#00CC92" fill-opacity="0.12"/>
<path d="M50.8377 36.1752C50.4489 36.1752 49.8301 35.1095 49.8301 34.7408V22H33.4307C32.5659 22 31.955 23.0337 32.0026 23.835V64.1971C32.0026 64.9343 33 65.9279 33.8515 65.9279L62.0876 66C63.5 66 64 65.5 64 64.654V36.1752H50.8377ZM38.9924 29.3961C43.84 28.6108 44.5858 35.7425 40.1666 36.3034C35.5887 36.8804 34.8985 30.0612 38.9924 29.3961ZM59.1365 59.4853H36.3266V56.1439L36.5329 55.9435H58.9382L59.1365 56.1439V59.4853ZM59.1365 51.921L58.9382 52.1293H36.5329L36.3266 51.921V48.5795H59.1365V51.921ZM59.1365 44.629H36.3266V41.2876L36.5329 41.0792H58.9382L59.1365 41.2876V44.629Z" fill="#00CC92"/>
<path d="M64 33H53V22L64 33Z" fill="#00CC92"/>
</svg>
