<svg width="60" height="36" viewBox="0 0 60 36" fill="none" xmlns="http://www.w3.org/2000/svg">
<path d="M59.1429 1.47273L59.1271 30.051C58.6815 32.1466 56.2439 31.2018 54.6974 31.4023C54.7918 22.9197 54.6241 14.4264 54.6974 5.9437C54.6031 5.15191 54.0369 4.62933 53.2401 4.60293C36.9735 4.74545 20.7016 4.43402 4.44017 4.60821C4.64986 3.01935 3.6748 0.395894 5.90275 0H57.5597C58.3722 0.0105572 59.0537 0.665103 59.1429 1.46745V1.47273Z" fill="url(#paint0_linear_3662_21320)"/>
<g filter="url(#filter0_d_3662_21320)">
<path d="M54.6972 31.3968C54.7915 22.9142 54.6238 14.4209 54.6972 5.9382C54.6028 5.14641 54.0367 4.62383 53.2398 4.59743C36.9732 4.73996 20.7013 4.42852 4.43991 4.60271C3.54349 4.61327 1.87122 4.45491 1.10061 4.6291C0.62881 4.73468 0.0311957 5.45784 0.00498451 5.95403L-0.0107422 34.5271C0.0783757 35.3294 0.765108 35.9839 1.57241 35.9998H53.2346C55.2686 35.7517 54.6762 32.9065 54.6919 31.3968H54.6972ZM48.9412 29.1218C47.6883 29.6602 47.1379 30.8056 46.9649 32.1095L7.81591 32.1728C7.57477 30.3939 6.35857 28.7787 4.43991 28.8473V11.7446C6.26945 11.7446 7.67961 10.235 7.74776 8.42969H47.0855C46.9596 10.2666 48.5638 11.8397 50.3881 11.7394V28.3986C50.3985 28.9581 49.5179 28.8684 48.9465 29.1165L48.9412 29.1218Z" fill="url(#paint1_linear_3662_21320)"/>
</g>
<path d="M11.2597 18.1574C13.6816 17.6454 15.0132 20.7862 12.9373 22.1428C11.3593 23.1774 9.36729 21.7046 9.67658 19.8835C9.79716 19.1498 10.5311 18.3158 11.2597 18.1574Z" fill="#9C760F"/>
<path d="M42.4824 18.1574C44.9043 17.6454 46.2358 20.7862 44.1599 22.1428C42.582 23.1774 40.5899 21.7046 40.8992 19.8835C41.0198 19.1498 41.7537 18.3158 42.4824 18.1574Z" fill="#9C760F"/>
<path d="M50.383 11.746C48.5587 11.8463 46.9546 10.268 47.0804 8.42578H7.74792C7.67977 10.2363 6.27485 11.746 4.44531 11.746V28.8434C6.36397 28.7695 7.58017 30.39 7.81607 32.1689L46.9651 32.1055C47.1433 30.8017 47.6885 29.6563 48.9414 29.1179C49.5128 28.8698 50.3935 28.9595 50.3882 28.4V11.7407L50.383 11.746ZM12.943 22.1396C11.3651 23.1742 9.37301 21.7014 9.6823 19.8803C9.80812 19.1466 10.5368 18.3126 11.2655 18.1542C13.6821 17.6422 15.0137 20.783 12.943 22.1396ZM44.1605 22.1396C42.5825 23.1742 40.5957 21.7014 40.8998 19.8803C41.0204 19.1466 41.7543 18.3126 42.4829 18.1542C44.9049 17.6422 46.2364 20.783 44.1605 22.1396Z" fill="#F3C859"/>
<path d="M21.9332 17.9805H19.3643V28.7436H21.9332V17.9805Z" fill="black"/>
<path d="M27.1481 15.8281H24.5791V26.5954H27.1481V15.8281Z" fill="black"/>
<path d="M32.3639 13.6758H29.7949V24.4081H32.3639V13.6758Z" fill="black"/>
<path d="M32.3639 24.4453H29.7949V26.5958H32.3639V24.4453Z" fill="#F9E100"/>
<path d="M24.5407 26.5938H21.9717V28.7442H24.5407V26.5938Z" fill="#00A878"/>
<path d="M29.7565 13.6758H27.1875V15.8263H29.7565V13.6758Z" fill="#FF58EB"/>
<path d="M27.1481 11.5273H24.5791V13.6778H27.1481V11.5273Z" fill="#FF7000"/>
<path d="M34.9713 13.6758H32.4023V15.8263H34.9713V13.6758Z" fill="#369DF0"/>
<defs>
<filter id="filter0_d_3662_21320" x="-2.01074" y="-0.453125" width="62.7715" height="39.4531" filterUnits="userSpaceOnUse" color-interpolation-filters="sRGB">
<feFlood flood-opacity="0" result="BackgroundImageFix"/>
<feColorMatrix in="SourceAlpha" type="matrix" values="0 0 0 0 0 0 0 0 0 0 0 0 0 0 0 0 0 0 127 0" result="hardAlpha"/>
<feOffset dx="2" dy="-1"/>
<feGaussianBlur stdDeviation="2"/>
<feComposite in2="hardAlpha" operator="out"/>
<feColorMatrix type="matrix" values="0 0 0 0 0 0 0 0 0 0 0 0 0 0 0 0 0 0 0.24 0"/>
<feBlend mode="normal" in2="BackgroundImageFix" result="effect1_dropShadow_3662_21320"/>
<feBlend mode="normal" in="SourceGraphic" in2="effect1_dropShadow_3662_21320" result="shape"/>
</filter>
<linearGradient id="paint0_linear_3662_21320" x1="31.7726" y1="0" x2="31.7726" y2="31.4463" gradientUnits="userSpaceOnUse">
<stop stop-color="#DBB552"/>
<stop offset="1" stop-color="#98710A"/>
</linearGradient>
<linearGradient id="paint1_linear_3662_21320" x1="27.3749" y1="4.54687" x2="27.3749" y2="35.9998" gradientUnits="userSpaceOnUse">
<stop stop-color="#D9B34F"/>
<stop offset="1" stop-color="#9B740D"/>
</linearGradient>
</defs>
</svg>
