<svg width="43" height="28" viewBox="0 0 43 28" fill="none" xmlns="http://www.w3.org/2000/svg">
<path d="M36.3805 2.76119C35.7963 3.09355 35.205 3.37535 34.6641 3.74384C33.4453 4.58921 32.8251 5.81752 32.7818 7.26981C32.7241 9.3218 32.7601 11.3738 32.7601 13.433C32.7601 15.2899 32.7601 17.1541 32.7601 19.011V19.3722C31.8442 19.1916 30.9788 19.0109 30.1062 18.8592C26.5219 18.2451 22.9088 17.9633 19.2668 18.115C16.209 18.2451 13.1872 18.6208 10.2087 19.2927C9.86252 19.3722 9.82644 19.2277 9.82644 18.9387C9.82644 15.2755 9.82644 11.6194 9.82644 7.9562C9.82644 6.89408 9.64615 5.86809 9.06921 4.94325C8.4562 3.97506 7.52588 3.41147 6.51622 2.9635C6.40083 2.91292 6.28545 2.86235 6.06909 2.76842C6.6244 2.41438 7.10035 2.06756 7.6124 1.793C8.74466 1.17885 9.97067 0.904297 11.2616 0.904297C18.0047 0.904297 24.755 0.904297 31.4981 0.904297C33.2361 0.904297 34.7939 1.45342 36.1569 2.55167C36.2435 2.62392 36.3228 2.7034 36.3805 2.75398V2.76119Z" fill="#00CC92"/>
<path d="M42.3306 24.4157C42.3306 25.1961 42.2224 25.9331 41.732 26.5689C41.1839 27.277 40.4339 27.6093 39.5684 27.6166C36.6981 27.6382 33.8278 27.631 30.9575 27.631C28.0871 27.631 25.4909 27.631 22.7648 27.6238C22.6422 27.6238 22.5196 27.6093 22.3682 27.6021V20.1022C23.7528 20.2034 25.1087 20.2829 26.4645 20.4129C29.4646 20.7092 32.4143 21.3377 35.3711 21.9302C36.0923 22.0747 36.5971 21.7496 36.6837 21.1138C36.7342 20.7597 36.626 20.4562 36.3159 20.2828C36.049 20.1311 35.7534 20.0155 35.4577 19.9288C34.7942 19.7409 34.7653 19.7193 34.7653 19.0329C34.7653 17.4433 34.7726 15.8465 34.7798 14.2569C34.7798 12.0387 34.7798 9.82781 34.787 7.60963C34.787 5.94058 35.7389 4.88568 37.4049 4.78453C38.2414 4.73395 39.0925 4.71227 39.9146 4.79897C41.3209 4.9507 42.2945 6.05618 42.309 7.48679C42.3378 10.283 42.3234 13.072 42.3234 15.8682C42.3234 18.7222 42.3234 21.569 42.3234 24.423L42.3306 24.4157Z" fill="#00CC92"/>
<path d="M20.2188 27.2555C20.2188 27.6096 20.0818 27.6746 19.7717 27.6746C16.5192 27.6746 13.2738 27.6746 10.0213 27.6746C7.69182 27.6746 5.36961 27.6746 3.04018 27.6601C1.43915 27.6457 0.292451 26.4896 0.278027 24.9001C0.24918 21.7354 0.227539 18.5779 0.227539 15.4132C0.227539 12.8265 0.256392 10.2399 0.278027 7.66042C0.292451 5.99137 1.17951 4.92925 2.85267 4.75585C3.74694 4.66192 4.67728 4.69805 5.57155 4.8281C6.91296 5.02319 7.76392 6.0853 7.78555 7.47979C7.8144 9.40895 7.79999 11.3381 7.79999 13.2673C7.79999 15.0086 7.79999 16.7571 7.79999 18.4984C7.79999 19.5822 7.78556 19.5967 6.79753 19.9941C6.73262 20.0157 6.66775 20.0446 6.60284 20.0735C6.08359 20.3337 5.83114 20.8177 5.98259 21.2802C6.14846 21.7932 6.58841 22.0533 7.17978 21.9666C7.73509 21.8799 8.29041 21.7715 8.84572 21.6776C11.2905 21.2513 13.7354 20.7888 16.1946 20.4203C17.4567 20.2325 18.7404 20.2108 20.0169 20.1169C20.0602 20.1169 20.1034 20.1241 20.1827 20.1386C20.1972 20.3264 20.2116 20.507 20.2116 20.6877C20.2116 22.877 20.1972 25.0735 20.2116 27.2627L20.2188 27.2555Z" fill="#00CC92"/>
</svg>
