<svg width="43" height="28" viewBox="0 0 43 28" fill="none" xmlns="http://www.w3.org/2000/svg">
<path d="M36.3805 2.16941C35.7963 2.50178 35.205 2.78357 34.6641 3.15206C33.4453 3.99742 32.8251 5.22573 32.7818 6.67802C32.7241 8.73001 32.7601 10.782 32.7601 12.8412C32.7601 14.6981 32.7601 16.5623 32.7601 18.4192V18.7804C31.8442 18.5998 30.9788 18.4192 30.1062 18.2674C26.5219 17.6533 22.9088 17.3715 19.2668 17.5232C16.209 17.6533 13.1872 18.029 10.2087 18.701C9.86252 18.7804 9.82644 18.6359 9.82644 18.3469C9.82644 14.6837 9.82644 11.0277 9.82644 7.36442C9.82644 6.3023 9.64615 5.27631 9.06921 4.35147C8.4562 3.38327 7.52588 2.81969 6.51622 2.37172C6.40083 2.32115 6.28545 2.27056 6.06909 2.17664C6.6244 1.82259 7.10035 1.47579 7.6124 1.20122C8.74466 0.58707 9.97067 0.3125 11.2616 0.3125C18.0047 0.3125 24.755 0.3125 31.4981 0.3125C33.2361 0.3125 34.7939 0.861624 36.1569 1.95987C36.2435 2.03213 36.3228 2.11162 36.3805 2.16219V2.16941Z" fill="#FF791F"/>
<path d="M42.3303 23.8239C42.3303 24.6043 42.2221 25.3413 41.7317 25.9771C41.1836 26.6852 40.4336 27.0175 39.5682 27.0248C36.6979 27.0464 33.8275 27.0392 30.9572 27.0392C28.0869 27.0392 25.4906 27.0392 22.7646 27.032C22.642 27.032 22.5194 27.0175 22.3679 27.0103V19.5104C23.7526 19.6116 25.1084 19.691 26.4643 19.8211C29.4644 20.1173 32.414 20.746 35.3709 21.3384C36.0921 21.4829 36.5969 21.1578 36.6834 20.522C36.7339 20.1679 36.6257 19.8645 36.3156 19.6911C36.0488 19.5393 35.7531 19.4237 35.4575 19.337C34.794 19.1491 34.7651 19.1275 34.7651 18.4411C34.7651 16.8515 34.7723 15.2547 34.7795 13.6651C34.7795 11.447 34.7795 9.236 34.7867 7.01783C34.7867 5.34878 35.7387 4.29389 37.4046 4.19273C38.2412 4.14215 39.0922 4.12047 39.9144 4.20717C41.3207 4.35891 42.2943 5.46438 42.3087 6.895C42.3376 9.6912 42.3231 12.4802 42.3231 15.2764C42.3231 18.1304 42.3231 20.9772 42.3231 23.8312L42.3303 23.8239Z" fill="#FF791F"/>
<path d="M20.2188 26.6559C20.2188 27.0099 20.0818 27.075 19.7717 27.075C16.5192 27.075 13.2738 27.075 10.0213 27.075C7.69182 27.075 5.36961 27.075 3.04018 27.0605C1.43915 27.0461 0.292451 25.89 0.278027 24.3004C0.24918 21.1357 0.227539 17.9783 0.227539 14.8136C0.227539 12.2269 0.256392 9.64026 0.278027 7.06082C0.292451 5.39177 1.17951 4.32965 2.85267 4.15624C3.74694 4.06231 4.67728 4.09843 5.57155 4.22849C6.91296 4.42357 7.76392 5.4857 7.78555 6.88019C7.8144 8.80935 7.79999 10.7385 7.79999 12.6677C7.79999 14.409 7.79999 16.1575 7.79999 17.8988C7.79999 18.9826 7.78556 18.9971 6.79753 19.3944C6.73262 19.4161 6.66775 19.445 6.60284 19.4739C6.08359 19.734 5.83114 20.2181 5.98259 20.6806C6.14846 21.1936 6.58841 21.4537 7.17978 21.367C7.73509 21.2803 8.29041 21.1719 8.84572 21.078C11.2905 20.6517 13.7354 20.1892 16.1946 19.8207C17.4567 19.6329 18.7404 19.6112 20.0169 19.5173C20.0602 19.5173 20.1034 19.5245 20.1827 19.539C20.1972 19.7268 20.2116 19.9075 20.2116 20.0881C20.2116 22.2774 20.1972 24.4739 20.2116 26.6631L20.2188 26.6559Z" fill="#FF791F"/>
</svg>
