<svg width="320" height="30" viewBox="0 0 320 30" fill="none" xmlns="http://www.w3.org/2000/svg">
<path fill-rule="evenodd" clip-rule="evenodd" d="M8 0C3.58172 0 0 3.58172 0 8C0 12.4183 3.58171 16 7.99999 16H33L49.733 27.8053C51.7571 29.2334 54.1736 30 56.6508 30H263.349C265.826 30 268.243 29.2334 270.267 27.8053L287 16H312C316.418 16 320 12.4183 320 8C320 3.58172 316.418 0 312 0H8Z" fill="#2C2C2C"/>
<path d="M140.901 20.756C140.037 20.756 139.28 20.596 138.629 20.276C137.978 19.9453 137.461 19.4867 137.077 18.9C136.693 18.3133 136.469 17.636 136.405 16.868L137.845 16.772C137.92 17.3373 138.085 17.8173 138.341 18.212C138.597 18.6067 138.938 18.9053 139.365 19.108C139.802 19.3107 140.325 19.412 140.933 19.412C141.733 19.412 142.352 19.2573 142.789 18.948C143.226 18.6387 143.445 18.196 143.445 17.62C143.445 17.2467 143.36 16.9267 143.189 16.66C143.018 16.3933 142.698 16.148 142.229 15.924C141.76 15.7 141.082 15.476 140.197 15.252C139.301 15.028 138.597 14.7827 138.085 14.516C137.584 14.2493 137.216 13.9293 136.981 13.556C136.757 13.172 136.645 12.692 136.645 12.116C136.645 11.4867 136.794 10.9267 137.093 10.436C137.402 9.94533 137.84 9.56667 138.405 9.3C138.981 9.02267 139.653 8.884 140.421 8.884C141.232 8.884 141.936 9.03867 142.533 9.348C143.141 9.65733 143.621 10.084 143.973 10.628C144.336 11.172 144.56 11.796 144.645 12.5L143.205 12.596C143.141 12.1267 142.992 11.716 142.757 11.364C142.522 11.0013 142.208 10.724 141.813 10.532C141.418 10.3293 140.944 10.228 140.389 10.228C139.685 10.228 139.125 10.3987 138.709 10.74C138.293 11.0707 138.085 11.508 138.085 12.052C138.085 12.4147 138.165 12.708 138.325 12.932C138.496 13.156 138.784 13.3587 139.189 13.54C139.605 13.7107 140.229 13.8973 141.061 14.1C142 14.3347 142.746 14.612 143.301 14.932C143.866 15.252 144.272 15.6253 144.517 16.052C144.762 16.468 144.885 16.9587 144.885 17.524C144.885 18.1747 144.714 18.7453 144.373 19.236C144.032 19.716 143.557 20.0893 142.949 20.356C142.352 20.6227 141.669 20.756 140.901 20.756ZM149.459 10.484H145.923V9.14H154.371V10.484H150.835V20.5H149.459V10.484ZM157.768 9.14H159.624L163.72 20.5H162.216L161.08 17.268H156.312L155.176 20.5H153.672L157.768 9.14ZM160.616 15.924L158.696 10.34L156.776 15.924H160.616ZM169.426 20.756C168.381 20.756 167.474 20.5053 166.706 20.004C165.949 19.492 165.368 18.788 164.962 17.892C164.557 16.996 164.354 15.9773 164.354 14.836C164.354 13.6947 164.557 12.676 164.962 11.78C165.378 10.8733 165.97 10.164 166.738 9.652C167.506 9.14 168.413 8.884 169.458 8.884C170.749 8.884 171.773 9.22533 172.53 9.908C173.288 10.5907 173.778 11.4973 174.002 12.628L172.562 12.724C172.413 11.9347 172.088 11.3213 171.586 10.884C171.085 10.4467 170.376 10.228 169.458 10.228C168.232 10.228 167.314 10.6653 166.706 11.54C166.098 12.404 165.794 13.5027 165.794 14.836C165.794 15.732 165.922 16.5213 166.178 17.204C166.445 17.8867 166.85 18.4253 167.394 18.82C167.949 19.2147 168.637 19.412 169.458 19.412C170.109 19.412 170.68 19.2627 171.17 18.964C171.672 18.6653 172.056 18.26 172.322 17.748C172.6 17.236 172.744 16.676 172.754 16.068H169.49V14.756H174.034V20.5H173.01L172.914 17.876L173.106 18.1C172.978 18.612 172.733 19.0707 172.37 19.476C172.018 19.8707 171.581 20.1853 171.058 20.42C170.546 20.644 170.002 20.756 169.426 20.756ZM176.37 9.14H183.506V10.484H177.746V14.148H183.314V15.46H177.746V19.156H183.634V20.5H176.37V9.14Z" fill="white" fill-opacity="0.4"/>
</svg>
