<svg width="48" height="34" viewBox="0 0 48 34" fill="none" xmlns="http://www.w3.org/2000/svg">
<g clip-path="url(#clip0_2568_24109)">
<path fill-rule="evenodd" clip-rule="evenodd" d="M4.66218 0H43.3378C45.9139 0 48 2.08614 48 4.66218V28.6918C48 31.2678 45.9139 33.3567 43.3378 33.3567H4.66218C2.08614 33.3567 0 31.2678 0 28.6918V4.66218C0 2.08614 2.08614 0 4.66218 0ZM12.1884 16.6756C12.1884 23.1978 17.4778 28.4899 24.0027 28.4899C30.5249 28.4899 35.8116 23.1978 35.8116 16.6756C35.8116 10.1534 30.5276 4.86676 24.0027 4.86676C17.4778 4.86676 12.1884 10.1534 12.1884 16.6756ZM26.3878 11.5658H27.7633C27.9517 11.5658 28.2559 11.3477 28.377 11.1997C28.8454 10.6156 28.6058 9.79997 27.8709 9.625L19.661 9.63846C18.5708 10.1472 18.8669 11.4662 20.0567 11.5685C20.4791 11.6044 20.9223 11.5857 21.3668 11.5669C22.5877 11.5153 23.8173 11.4634 24.6462 12.5429C24.6589 12.5601 24.6735 12.5736 24.6874 12.5864C24.7234 12.6196 24.7544 12.6482 24.735 12.7259H19.7552C19.6717 12.7259 19.3353 12.9494 19.2653 13.0328C18.9477 13.4258 18.9746 14.0638 19.3514 14.411C19.451 14.4998 19.8279 14.6829 19.9355 14.6829H25.1657C25.0499 15.8053 23.984 16.7825 22.8723 16.8821C22.4765 16.9169 22.0048 16.8937 21.5283 16.8702C20.8997 16.8393 20.2629 16.8079 19.7821 16.909C19.3057 17.0086 18.9611 17.4662 18.988 17.9507C19.0048 18.2782 19.306 18.6057 19.5447 18.8653C19.5748 18.8981 19.6039 18.9297 19.6314 18.9601C20.4376 19.8605 21.2882 20.7246 22.1388 21.5887C22.9894 22.4527 23.84 23.3168 24.6462 24.2172C25.5372 24.9117 26.6704 23.8942 26.1105 22.9359L22.3824 19.0247L22.2935 18.839H23.1765C23.2437 18.839 23.7552 18.7044 23.8682 18.6721C25.6421 18.1714 26.9853 16.5106 27.1899 14.6909C28.019 14.7609 28.7323 14.3599 28.5843 13.4339C28.4659 12.6772 27.6288 12.6982 27.0286 12.7132C27.0011 12.7139 26.9741 12.7146 26.9477 12.7152L26.3878 11.5658Z" fill="#00CC92"/>
</g>
<defs>
<clipPath id="clip0_2568_24109">
<rect width="48" height="33.3567" fill="white"/>
</clipPath>
</defs>
</svg>
